<svg width="420" height="549" viewBox="0 0 420 549" fill="none" xmlns="http://www.w3.org/2000/svg">
<path fill-rule="evenodd" clip-rule="evenodd" d="M132.204 91.4893C131.038 93.2248 130.127 94.822 128.986 96.2258C127.679 97.8314 126.318 99.462 124.717 100.746C121.198 103.561 117.201 104.131 113.008 102.4C107.674 100.2 103.825 96.4439 101.693 90.9887C101.299 89.9794 100.94 88.9606 100.444 87.6081C99.4816 88.6057 98.7304 89.3561 98.0154 90.1249C95.5535 92.7564 92.7724 94.9204 89.3578 96.1281C88.2195 96.5283 87.0161 96.8 85.8214 97.001C81.9208 97.6482 79.5445 95.2985 78.4137 92.8704C78.0088 91.9953 77.7114 91.0701 77.393 90.2377C76.4502 89.8937 76.2339 90.6395 75.8601 91.0391C73.9326 93.0907 72.1403 95.2796 70.0914 97.1928C67.9257 99.22 65.3554 100.66 62.393 101.209C61.6728 101.34 60.9456 101.471 60.2182 101.504C55.8674 101.701 53.399 99.9891 51.5405 95.3206C51.1562 96.0508 50.764 96.5781 50.5918 97.1662C48.8172 103.094 48.0668 109.149 48.0928 115.364C48.1439 127.309 52.0614 138.049 57.7685 148.263C59.2014 150.83 60.7297 153.369 62.4348 155.761C68.9265 164.83 77.7439 170.834 87.9374 174.849C90.8507 175.994 93.961 176.795 97.0606 177.26C101.025 177.864 105.062 178.21 109.068 178.249C121.38 178.36 132.963 175.473 143.738 169.333C149.629 165.977 155.027 161.963 159.618 156.998C166.545 149.496 172.445 141.248 175.925 131.468C176.293 130.431 176.576 129.364 176.852 128.298C176.895 128.12 176.696 127.875 176.51 127.425C175.879 127.542 175.175 127.602 174.508 127.805C172.435 128.436 170.587 127.893 169.055 126.526C167.694 125.315 166.413 123.965 165.345 122.486C162.606 118.697 160.379 114.603 158.459 110.325C157.978 109.259 157.852 107.928 156.493 107.124C155.903 107.897 155.413 108.79 154.694 109.411C153.687 110.272 152.57 111.063 151.39 111.642C149.344 112.65 147.348 112.265 145.533 110.933C143.733 109.607 142.348 107.879 141.187 105.986C138.677 101.913 136.226 97.7936 133.736 93.7052C133.287 92.9947 132.787 92.3372 132.204 91.4893ZM97.9372 143.612C97.9164 143.614 97.9026 143.615 97.8819 143.617C97.9901 145.089 97.9814 146.577 98.2338 148.025C98.6653 150.491 101.602 153.185 104.04 153.537C107.785 154.08 111.775 151.525 112.685 147.83C113.026 146.429 112.964 144.925 113.094 143.47C113.161 142.686 113.426 142.028 114.272 141.818C115.058 141.626 115.978 142.232 116.203 143.113C116.328 143.588 116.399 144.081 116.414 144.571C116.649 150.321 113.75 154.48 108.294 156.274C103.169 157.952 97.3343 155.172 95.4503 150.063C94.2182 146.73 94.5826 143.272 95.033 139.849C95.1269 139.141 96.1177 138.436 96.6593 138.711C97.1499 138.956 97.7509 139.472 97.8273 139.944C98.0054 141.137 97.9165 142.386 97.9372 143.612ZM129.827 134.426C129.599 131.601 131.309 129.804 134.486 129.526C137.538 129.258 139.879 131.119 140.067 133.968C140.245 136.663 138.251 139.049 135.634 139.286C132.72 139.544 130.06 137.313 129.827 134.426ZM76.1173 122.427C75.8697 120.382 76.7812 118.505 78.3681 117.776C81.0787 116.544 84.9205 118.216 85.9152 121.061C86.6117 123.066 85.7322 125.475 83.917 126.5C80.8413 128.251 76.5544 126.008 76.1173 122.427Z" fill="#FFF7F9"/>
<path fill-rule="evenodd" clip-rule="evenodd" d="M158.361 72.7779C155.033 73.4599 152.491 72.3574 150.211 70.5619C147.902 68.7474 145.688 66.8067 143.411 64.9548C142.465 64.1831 141.511 63.4048 140.477 62.7658C139.559 62.1954 138.569 61.8689 137.402 61.7941C135.6 61.6752 133.795 61.2338 132.042 60.7324C130.011 60.1463 128.174 59.181 127.42 57.2512C123.229 56.4886 119.277 55.7855 115.324 55.0544C112.794 54.5895 110.25 54.4836 107.683 54.4636C95.4428 54.3754 84.3525 58.1103 74.2378 64.8111C65.6082 70.5315 59.0341 78.2115 54.4186 87.5705C53.9588 88.5028 53.8225 89.39 54.1197 90.4064C54.5728 91.9376 54.869 93.5084 55.3153 95.04C56.0013 97.3748 57.1481 98.2229 59.5204 98.2504C61.5168 98.2707 63.4707 97.9011 65.1039 96.7625C66.9949 95.4434 68.8787 94.0265 70.4734 92.3645C72.766 89.9841 74.8561 87.4013 76.3884 84.4177C76.662 83.8852 77.0494 83.3863 77.4774 82.9686C77.9375 82.5135 79.1507 82.7532 79.4234 83.3435C79.6793 83.8928 79.8756 84.4817 79.9819 85.0773C80.2943 86.7732 80.4561 88.5013 80.8568 90.1697C81.6067 93.2786 83.5257 94.4202 86.5813 93.6252C91.5741 92.3285 95.1594 89.0943 97.9948 84.9265C98.7475 83.8181 99.3016 82.5631 99.9662 81.3911C100.207 80.9733 100.467 80.547 100.797 80.2138C101.379 79.6163 102.702 79.9391 102.922 80.7578C103.113 81.4593 103.133 82.2086 103.256 82.9293C103.534 84.6278 103.716 86.3474 104.13 88.0077C105.486 93.4012 108.858 97.1084 113.862 99.2632C117.149 100.682 120.309 100.258 123.119 97.9237C126.008 95.5201 127.933 92.4021 129.536 89.0485C129.903 88.2775 130.19 87.4493 130.637 86.7284C131.152 85.8833 132.572 85.82 133.193 86.602C133.722 87.2714 134.126 88.0413 134.563 88.7808C137.526 93.7322 140.437 98.7226 143.468 103.634C144.36 105.083 145.461 106.447 146.655 107.657C148.188 109.22 149.827 109.204 151.579 107.888C153.002 106.821 153.786 105.289 154.556 103.745C155.046 102.761 155.463 101.719 156.056 100.798C156.724 99.7665 158.242 99.9977 158.702 101.149C158.925 101.715 159.046 102.331 159.208 102.922C161.012 109.686 164.471 115.604 168.373 121.307C168.715 121.808 169.145 122.26 169.567 122.706C171.855 125.09 174.788 125.272 177.389 123.206C178.256 122.517 178.378 121.533 178.417 120.547C178.581 116.353 178.558 112.166 177.802 108.026C176.259 99.5238 172.773 91.8115 167.852 84.8161C164.978 80.707 161.654 76.919 158.361 72.7779Z" fill="#F5C2E1"/>
<path fill-rule="evenodd" clip-rule="evenodd" d="M115.942 181.359C107.72 181.668 99.8163 181.468 91.9767 179.594C90.0519 182.628 88.9145 185.877 87.5094 188.984C80.2634 205.015 73.975 221.402 69.5565 238.451C70.7544 240.846 72.9901 241.663 75.1702 242.385C81.4688 244.479 87.9087 245.657 94.6064 245.237C100.937 244.837 107.326 244.848 113.494 243.183C119.261 241.632 124.969 239.848 130.658 238.008C132.254 237.49 133.724 236.504 135.182 235.624C136.293 234.952 136.449 234.238 135.924 233.141C135.66 232.585 135.331 232.069 135.02 231.538C130.5 223.748 127.094 215.44 124.067 206.978C121.416 199.568 118.894 192.107 117.023 184.443C116.781 183.507 116.381 182.611 115.942 181.359Z" fill="#FF92CD"/>
<path fill-rule="evenodd" clip-rule="evenodd" d="M146.588 250.27C145.389 247.679 141.126 241.126 138.406 237.686C137.949 237.902 137.407 238.097 136.928 238.392C134.224 240.094 131.319 241.32 128.291 242.31C120.866 244.748 113.41 247.048 105.594 247.762C99.4072 248.326 93.1921 248.787 86.9887 248.272C81.1281 247.788 75.4791 246.305 70.1698 243.675C69.6505 243.419 69.0771 243.279 68.3781 243.036C66.8549 247.373 66.5529 251.585 67.1619 255.897C67.3513 257.244 68.0825 258.207 69.2657 258.702C70.6068 259.262 72 259.776 73.4193 260.078C79.2816 261.341 85.2121 261.925 91.2054 261.663C95.8338 261.46 100.455 261.159 105.078 260.886C114.38 260.336 123.393 258.229 132.273 255.535C136.462 254.263 140.566 252.703 144.699 251.238C145.364 251.021 145.966 250.604 146.588 250.27Z" fill="#FFDBEE"/>
<path fill-rule="evenodd" clip-rule="evenodd" d="M132.951 45.9857C135.321 46.6379 137.761 47.3058 140.393 48.0227C146.64 43.3632 152.393 38.1298 156.188 31.0419C158.933 25.9195 159.291 20.49 157.564 14.9557C157.201 13.8107 156.579 12.7132 155.906 11.7036C155.203 10.6401 153.966 10.5565 153.084 11.5061C152.176 12.4856 151.302 13.5538 150.665 14.7168C149.665 16.5381 148.877 18.4841 148.008 20.373C147.648 21.1505 147.413 22.0169 146.913 22.6855C146.609 23.087 145.856 23.4306 145.384 23.3463C144.912 23.2621 144.375 22.6774 144.165 22.1808C143.887 21.5208 143.94 20.7309 143.79 20.0123C143.234 17.3662 142.699 14.7185 142.075 12.0914C141.732 10.6503 141.106 9.31448 139.831 8.04782C139.463 8.52421 138.99 8.89612 138.844 9.37005C138.386 10.8986 138.056 12.4597 137.676 14.0036C137.532 14.5897 137.482 15.2389 137.2 15.751C136.992 16.1313 136.455 16.5921 136.099 16.5694C135.569 16.5386 134.79 16.2456 134.585 15.8257C133.989 14.628 133.669 13.2975 133.167 12.0437C132.912 11.4101 132.495 10.8515 132.05 10.0847C130.893 12.1212 130.887 14.1214 130.673 16.0388C130.455 17.9916 130.379 19.976 130.44 21.9362C130.695 29.9514 131.302 37.9195 132.951 45.9857Z" fill="#F5C2E1"/>
<path fill-rule="evenodd" clip-rule="evenodd" d="M192.753 188.781C192.238 186.981 191.017 186.342 189.906 185.603C189.299 185.199 188.617 184.899 188.049 184.45C187.229 183.795 187.385 182.415 188.34 181.979C189.107 181.635 189.956 181.46 190.756 181.183C191.671 180.869 192.601 180.569 193.483 180.173C194.209 179.846 194.609 179.234 194.394 178.387C194.198 177.608 193.705 177.049 192.918 176.939C192.328 176.856 191.713 177 191.116 177.002C190.351 177.003 189.662 176.808 189.339 176.004C189.041 175.261 189.381 174.499 190.285 173.843C190.583 173.631 190.934 173.493 191.231 173.282C193.848 171.439 194.226 170.246 193.327 166.516C191.848 166.17 190.528 166.928 189.247 167.472C187.232 168.33 185.318 169.433 183.336 170.366C182.402 170.807 181.784 171.478 181.257 172.345C180.854 173.006 180.199 173.364 179.383 173.136C178.581 172.908 178.177 172.243 178.102 171.505C178.03 170.809 178.269 170.083 178.279 169.366C178.289 168.278 178.332 167.166 178.149 166.092C177.978 165.087 177.258 164.369 176.347 163.896C175.249 163.325 174.101 163.691 173.63 164.848C173.353 165.522 173.107 166.242 173.028 166.963C172.75 169.524 172.536 172.094 172.342 174.662C172.28 175.516 172.463 176.4 172.323 177.239C171.55 181.934 172.722 186.254 174.785 190.388C176.897 194.638 180.308 196.497 185.254 196.172C186.144 194.752 185.443 193.351 185.091 191.967C184.914 191.264 184.505 190.614 184.335 189.911C184.078 188.87 185.098 187.897 186.088 188.223C186.772 188.453 187.4 188.869 188.08 189.128C189.604 189.716 191.113 189.738 192.753 188.781Z" fill="#FFF7F9"/>
<path fill-rule="evenodd" clip-rule="evenodd" d="M169.422 150.433C170.668 150.733 171.373 151.067 172.074 151.043C177.433 150.856 182.565 149.745 186.523 145.817C190.793 141.584 192.658 136.415 191.197 130.349C190.458 127.295 188.342 125.551 185.373 124.887C183.013 124.36 181.3 125.357 180.515 127.633C179.994 129.145 179.593 130.691 179.072 132.203C177.201 137.576 174.549 142.544 171.421 147.267C170.827 148.167 170.269 149.086 169.422 150.433Z" fill="#FFF7F9"/>
<path fill-rule="evenodd" clip-rule="evenodd" d="M30.7771 143.347C29.5143 143.567 29.2436 144.422 29.2232 145.28C29.1922 146.748 29.2935 148.222 29.4151 149.686C29.5877 151.75 29.3684 152.644 28.4369 152.832C27.0463 153.111 26.5894 152.001 25.9596 151.093C25.3378 150.199 24.675 149.315 23.8901 148.566C23.382 148.085 22.5601 147.683 21.9231 148.284C21.5462 148.642 21.246 149.38 21.3244 149.879C21.5164 151.072 21.9285 152.234 22.312 153.385C22.5003 153.96 23.0035 154.47 23.0519 155.035C23.0973 155.558 22.8821 156.317 22.5001 156.605C22.132 156.892 21.2673 156.949 20.8804 156.698C19.7641 155.98 18.8174 154.921 17.3287 155.095C16.7703 155.157 16.238 155.386 15.7948 155.503C15.5406 156.49 16.0633 156.887 16.5394 157.216C17.0303 157.559 17.6343 157.738 18.1572 158.043C19.6755 158.934 19.7389 160.27 18.3026 161.155C17.6843 161.538 16.9801 161.793 16.3921 162.209C15.9164 162.546 15.5488 163.029 14.9277 163.658C15.5236 164.105 15.919 164.567 16.4193 164.754C18.9715 165.715 21.6322 165.883 24.3309 165.718C25.7773 165.631 27.2227 165.531 28.672 165.578C31.6332 165.674 34.2228 164.97 36.074 162.447C37.8808 159.983 39.7466 157.564 41.4876 155.056C42.2546 153.954 42.778 152.659 42.6117 151.247C42.5586 150.809 42.2753 150.17 41.947 150.054C41.4546 149.88 40.6045 149.852 40.3071 150.155C39.2989 151.191 38.4339 152.378 37.5752 153.557C36.938 154.439 36.4988 155.651 35.1064 155.242C33.9625 154.906 33.9703 153.783 33.857 152.809C33.5547 150.116 33.136 147.445 31.9468 144.979C31.6379 144.371 31.1406 143.846 30.7771 143.347Z" fill="#FFF7F9"/>
<path fill-rule="evenodd" clip-rule="evenodd" d="M45.3087 124.404C45.2206 122.544 45.1935 121.325 45.1048 120.118C44.5843 113.322 44.9866 106.598 46.5 99.9534C46.578 99.5967 46.6624 99.2326 46.7756 98.8804C47.6243 96.2423 46.1655 94.3648 44.1909 92.9395C42.5612 91.7624 39.6509 91.6977 37.7502 93.4525C35.3938 95.6272 33.937 98.2192 33.8788 101.493C33.734 108.977 36.4938 115.41 40.9717 121.196C41.563 121.959 42.3653 122.566 43.1262 123.177C43.5633 123.544 44.1279 123.755 45.3087 124.404Z" fill="#FFF7F9"/>
<path fill-rule="evenodd" clip-rule="evenodd" d="M26.4793 263.197C25.7608 265.054 25.9454 266.808 26.616 268.365C29.0941 274.181 32.8982 278.838 38.6334 281.683C38.8426 281.786 39.1053 281.767 39.4645 281.831C40.3255 280.778 40.6818 279.573 40.1984 278.198C38.4901 273.399 36.1556 268.97 32.2587 265.603C31.0859 264.588 29.6106 263.905 28.204 263.209C27.749 262.977 27.0695 263.188 26.4793 263.197Z" fill="#FF92CD"/>
<path fill-rule="evenodd" clip-rule="evenodd" d="M133.289 301.4C132.703 302.791 132.021 304.21 131.491 305.688C130.546 308.34 129.679 311.022 128.799 313.697C128.333 315.121 128.176 316.571 128.563 318.051C128.833 319.083 129.803 319.608 130.815 319.287C132.031 318.902 132.931 318.092 133.671 317.104C136.191 313.745 137.282 309.959 137.111 305.741C137.007 303.293 135.981 301.811 133.289 301.4Z" fill="#FF92CD"/>
<path fill-rule="evenodd" clip-rule="evenodd" d="M128.281 53.5669C129.774 51.8493 130.008 50.218 129.842 48.4201C129.602 45.8206 128.92 43.3522 128.106 40.8935C126.66 36.5382 124.631 32.4787 121.875 28.838C120.781 27.3895 119.453 26.0567 118.01 24.9638C116.222 23.616 114.617 24.093 113.39 26.0294C111.963 28.2754 111.463 30.8385 111.375 33.4202C111.204 38.4709 111.582 43.509 112.297 48.515C112.501 49.9594 113.034 51.0636 114.594 51.4811C119.075 52.6782 123.57 53.6919 128.281 53.5669Z" fill="#FFD152"/>
<path fill-rule="evenodd" clip-rule="evenodd" d="M141.803 59.4617C145.009 62.1288 148.174 64.8059 151.39 67.4231C152.24 68.1108 153.181 68.7216 154.162 69.2031C155.973 70.1002 157.422 69.6769 158.629 68.0297C158.92 67.6362 159.137 67.192 159.37 66.7608C162.094 61.6539 164.33 56.3307 166.058 50.8066C166.598 49.0685 167.203 47.2834 166.307 45.4974C165.084 44.7392 163.853 45.1112 162.667 45.2413C159.205 45.6105 147.561 48.8111 144.086 50.3389C143.762 51.6962 143.403 53.2384 143.015 54.7758C142.641 56.2982 142.232 57.8301 141.803 59.4617Z" fill="#FFD152"/>
<path fill-rule="evenodd" clip-rule="evenodd" d="M131.091 56.628C132.961 57.8645 134.611 58.2754 136.313 58.4578C137.889 58.6215 138.672 58.2056 139.165 56.7727C139.6 55.5124 139.822 54.1768 140.127 52.9403C138.623 50.8276 136.601 50.1707 134.293 49.7877C132.623 51.7569 132.449 54.3099 131.091 56.628Z" fill="#FFD152"/>
<path fill-rule="evenodd" clip-rule="evenodd" d="M147.43 135.8C153.969 135.764 158.956 141.681 158.377 148.081C158.116 150.95 156.747 153.318 154.76 154.946C153.083 156.628 150.803 157.758 148.55 158.115C143.334 158.937 138.565 153.726 137.503 149.02C136.069 142.657 140.704 135.836 147.43 135.8Z" fill="#F8CFDD"/>
<path fill-rule="evenodd" clip-rule="evenodd" d="M53.3915 129.684C53.4236 128.608 53.6362 127.624 53.9864 126.714C54.8852 121.827 59.2184 118.46 64.2189 118.685C69.7775 118.939 75.3981 122.494 75.5114 128.667C75.6414 135.351 69.2515 140.148 62.9766 139.512C58.3697 139.061 53.2506 134.669 53.3915 129.684Z" fill="#F8CFDD"/>
<path fill-rule="evenodd" clip-rule="evenodd" d="M120.216 183.615C122.387 184.219 123.59 185.449 124.874 186.553C128.599 189.751 132.467 192.72 136.797 195.079C140.208 196.939 143.793 197.95 147.647 197.988C155.444 198.063 162.974 196.957 169.799 192.782C170.305 192.478 170.859 192.262 171.483 191.963C172.159 192.832 172.711 193.626 173.355 194.343C176.074 197.383 179.323 199.409 183.498 199.563C184.105 199.588 184.725 199.605 185.324 199.526C187.649 199.199 188.799 198.013 189.031 195.687C189.102 194.959 189.034 194.213 189.034 193.273C189.697 193.119 190.373 192.956 191.05 192.801C191.644 192.666 192.249 192.572 192.827 192.389C196.462 191.249 197.232 189.164 195.186 186.011C194.786 185.395 194.294 184.849 193.733 184.119C194.333 183.675 194.883 183.213 195.481 182.839C197.891 181.313 198.179 179.643 197.258 176.764C196.968 175.859 196.299 175.074 195.711 174.079C196.014 173.278 196.407 172.385 196.686 171.459C197.234 169.651 197.168 167.803 196.755 165.981C196.304 164.001 195.096 163.08 193.076 163.124C191.078 163.167 189.262 163.905 187.488 164.731C185.827 165.493 184.198 166.308 182.654 167.054C181.348 166.589 181.477 165.422 181.096 164.58C180.189 162.563 178.798 161.13 176.627 160.54C174.081 159.851 171.983 160.708 170.883 163.148C170.333 164.36 169.897 165.705 169.772 167.026C169.419 170.82 169.108 174.625 169.062 178.432C169.022 181.852 169.357 185.272 169.54 188.984C166.16 191.599 162.14 193.272 157.752 193.906C154.498 194.372 151.203 194.56 147.914 194.726C144.943 194.876 142.128 194.123 139.431 192.807C135.105 190.7 131.337 187.766 127.639 184.742C126.137 183.513 124.777 182.119 123.166 180.631C124.482 179.727 126.125 179.851 127.539 179.325C129.021 178.78 130.589 178.461 132.096 177.963C133.718 177.429 135.322 176.84 136.901 176.19C138.365 175.59 139.811 174.929 141.239 174.227C142.662 173.532 144.074 172.789 145.455 172.006C146.836 171.223 148.201 170.406 149.527 169.536C150.853 168.666 152.155 167.741 153.418 166.778C154.689 165.814 155.93 164.824 157.131 163.773C158.425 162.646 159.673 161.473 160.905 160.273C162.046 159.157 163.158 158.015 164.218 156.835C165.278 155.662 166.264 154.417 167.223 153.273C175.181 155.441 182.202 153.643 188.216 148.574C193.42 144.189 195.518 138.238 194.729 131.385C194.025 125.325 189.587 121.507 183.481 121.56C183.009 121.567 182.542 121.552 181.812 121.55C181.763 120.88 181.651 120.306 181.685 119.735C182.401 109.353 179.803 99.7435 175.118 90.583C171.894 84.2892 167.736 78.6962 163.015 73.4956C162.357 72.7725 161.713 72.0484 160.918 71.1671C161.306 70.2963 161.636 69.4018 162.075 68.5624C164.593 63.7659 166.78 58.8255 168.493 53.6817C169.034 52.0559 169.488 50.3873 169.83 48.7061C170.024 47.7584 170.039 46.7329 169.913 45.774C169.593 43.3207 168.303 42.041 165.827 41.8245C164.63 41.7167 163.369 41.775 162.191 42.0166C158.734 42.7358 155.3 43.5866 151.848 44.3756C151.39 44.4797 150.914 44.522 149.958 44.663C150.643 43.7772 151.048 43.235 151.468 42.7057C153.592 40.0154 155.934 37.4632 157.809 34.6089C162.128 28.037 162.873 20.874 160.405 13.4226C159.914 11.9434 159.077 10.4828 158.091 9.27872C156.107 6.87165 153.292 6.78544 151.055 8.97196C150.018 9.98903 149.163 11.2171 148.283 12.3909C147.776 13.06 147.373 13.8126 146.751 14.8129C146.34 14.2329 146.004 13.914 145.872 13.5309C145.423 12.259 145.171 10.9024 144.608 9.68108C144.003 8.35065 143.292 7.01395 142.363 5.90402C140.426 3.5846 138.369 3.7721 136.703 6.2671C136.303 6.86514 135.99 7.53381 135.511 8.39025C134.968 7.813 134.602 7.37002 134.186 7.00091C132.246 5.2992 130.272 5.68396 129.188 8.0447C128.679 9.14898 128.239 10.3533 128.091 11.5501C127.713 14.7216 127.37 17.9045 127.285 21.0964C127.218 23.6695 127.548 26.2623 127.689 28.841C127.716 29.4003 127.688 29.9637 127.685 31.241C126.74 30.0129 126.247 29.3688 125.749 28.7321C124.543 27.1865 123.403 25.5729 122.094 24.1332C121.285 23.2389 120.269 22.4722 119.224 21.876C116.277 20.1787 113.152 20.8803 111.144 23.6253C109.117 26.4066 108.396 29.6386 108.241 33.0041C107.975 38.5529 108.264 44.0817 109.286 49.5562C109.354 49.9091 109.297 50.2781 109.305 50.8529C108.611 50.9674 107.925 51.1797 107.243 51.174C94.2333 51.1133 82.5272 55.3555 71.849 62.5106C64.4432 67.4727 58.4865 73.9904 53.9696 81.7487C52.4268 84.396 51.1962 87.2237 49.8132 89.9644C49.437 90.7079 49.0316 91.4326 48.5722 92.2736C47.84 91.6753 47.3047 91.2027 46.7305 90.7681C43.0735 88.0218 38.7557 88.1943 35.3674 91.266C32.7219 93.6652 31.1628 96.6576 30.7661 100.237C30.4657 102.954 30.6211 105.63 31.3109 108.294C32.3023 112.129 33.6578 115.811 35.6877 119.211C38.6944 124.265 40.6542 125.958 46.1882 128.235C46.5062 129.25 46.8834 130.408 47.2404 131.575C50.5403 142.402 55.5199 152.348 62.6526 161.138C63.8834 162.654 65.2227 164.133 66.6992 165.399C72.3076 170.197 78.3045 174.419 85.177 177.222C85.8505 177.495 86.4951 177.847 87.1451 178.177C87.2391 178.227 87.278 178.378 87.4904 178.713C87.2045 179.078 86.914 179.57 86.5105 179.944C82.9909 183.214 79.2074 186.112 74.7571 187.978C68.4593 190.62 62.0604 191.227 55.4866 188.894C51.0897 187.332 47.4809 184.673 44.6136 181.04C42.1068 177.865 39.7896 174.528 37.4404 171.229C36.588 170.036 35.7925 168.769 35.8203 167.069C39.3413 164.1 42.1654 160.445 44.479 156.373C45.6049 154.388 46.1659 152.283 45.6772 149.99C45.1555 147.531 42.818 145.9 40.5208 146.421C39.9399 146.556 39.3697 146.836 38.8569 147.141C38.2312 147.517 37.668 147.987 36.9031 148.549C36.5721 147.83 36.2823 147.198 35.9994 146.567C35.2503 144.889 34.6998 143.078 33.7056 141.566C32.0001 138.983 29.1395 139.027 27.3544 141.594C26.6063 142.667 26.2031 143.988 25.592 145.317C24.8056 145.116 24.0055 144.824 23.1774 144.717C20.7197 144.38 18.8875 145.645 18.3048 148.116C18.0565 149.18 17.9851 150.287 17.8231 151.485C16.8926 151.687 15.9214 151.808 15.013 152.121C12.5182 152.979 11.6333 154.932 12.6267 157.378C12.9416 158.161 13.4588 158.86 13.9045 159.627C13.326 160.455 12.6574 161.193 12.2341 162.052C11.3576 163.836 11.9268 165.808 13.592 166.898C14.3001 167.358 15.0971 167.797 15.9016 167.962C18.0465 168.393 20.2518 169.078 22.3742 168.921C25.9761 168.654 29.3745 169.588 32.5368 169.866C35.7259 174.282 38.6384 178.529 41.7752 182.612C46.48 188.733 52.6857 192.392 60.3382 193.327C65.3952 193.941 70.3523 193.293 75.0363 191.298C77.604 190.202 79.9952 188.692 82.4535 187.338C83.1749 186.941 83.8488 186.463 84.5267 186.041C85.2815 186.946 84.6328 187.577 84.3857 188.184C82.0703 193.745 79.6759 199.269 77.3675 204.828C72.321 217.004 68.6218 229.635 65.1357 242.327C64.029 246.366 63.4502 250.493 63.7493 254.744C64.0398 258.876 66.1455 261.323 69.9538 262.444C71.6662 262.949 73.4027 263.403 75.2262 263.906C68.199 272.784 53.8048 280.544 44.265 279.938C43.9683 279.118 43.6239 278.218 43.321 277.314C41.568 272.104 38.99 267.397 34.9646 263.612C33.9043 262.617 32.6435 261.826 31.436 261.003C30.9381 260.661 30.3506 260.424 29.7801 260.228C26.1937 259.006 22.9815 259.939 22.8896 264.92C22.8555 266.817 23.2508 268.598 24.0154 270.296C26.4939 275.824 30.2496 280.289 35.3463 283.518C36.564 284.291 38.0001 284.725 39.3706 285.213C40.6206 285.667 41.8365 285.472 42.6799 284.371C43.2822 283.583 44.003 283.459 44.9018 283.393C52.7431 282.833 59.8761 280.206 66.4233 275.855C71.2343 272.657 75.5809 268.911 79.4835 264.517C92.9249 265.339 106.259 264.323 119.582 262.312C120.835 263.187 121.459 264.488 121.891 265.923C122.944 269.458 123.956 273.004 125.077 276.513C126.953 282.367 128.912 288.2 130.823 294.043C131.092 294.859 131.299 295.692 131.573 296.675C130.799 297.68 130.026 298.698 130.003 300.174C129.99 301.227 129.372 302.269 129.01 303.313C127.975 306.337 126.918 309.355 125.897 312.378C125.258 314.278 125.096 316.226 125.436 318.208C126.114 322.122 129.282 323.803 132.766 321.931C134.023 321.263 135.252 320.288 136.121 319.157C139.661 314.565 141.057 309.354 140.045 303.542C139.731 301.74 138.978 300.189 137.328 299.399C135.814 298.67 135.304 297.409 134.83 295.971C132.026 287.443 128.951 279.005 126.629 270.315C125.842 267.37 124.775 264.495 123.777 261.412C124.398 261.169 124.922 260.92 125.473 260.76C129.808 259.491 134.18 258.353 138.47 256.955C141.83 255.864 145.092 254.472 148.382 253.183C148.943 252.966 149.484 252.659 149.979 252.313C150.74 251.78 151.02 250.875 150.611 250.028C150.184 249.148 149.638 248.332 149.097 247.509C146.48 243.5 143.843 239.499 141.219 235.491C135.055 226.075 130.589 215.825 126.909 205.221C124.651 198.723 122.731 192.101 120.663 185.532C120.5 185.109 120.429 184.63 120.216 183.615ZM132.212 91.4808C132.796 92.3287 133.303 92.9857 133.731 93.6978C136.221 97.7865 138.672 101.899 141.183 105.979C142.351 107.871 143.73 109.601 145.531 110.927C147.346 112.266 149.341 112.644 151.387 111.637C152.567 111.051 153.684 110.267 154.691 109.406C155.411 108.792 155.901 107.892 156.49 107.119C157.849 107.923 157.975 109.254 158.457 110.32C160.384 114.591 162.604 118.693 165.344 122.482C166.412 123.961 167.7 125.311 169.055 126.523C170.587 127.89 172.435 128.433 174.508 127.803C175.175 127.599 175.879 127.54 176.51 127.423C176.696 127.872 176.902 128.116 176.852 128.295C176.576 129.361 176.301 130.434 175.925 131.466C172.447 141.245 166.548 149.491 159.621 156.993C155.03 161.957 149.633 165.971 143.742 169.326C132.968 175.464 121.385 178.35 109.073 178.237C105.066 178.197 101.03 177.851 97.0652 177.246C93.9719 176.774 90.855 175.98 87.9415 174.835C77.7474 170.818 68.9359 164.812 62.4361 155.744C60.7242 153.359 59.2026 150.819 57.7687 148.245C52.0603 138.031 48.1414 127.291 48.0888 115.345C48.0625 109.137 48.8122 103.083 50.5856 97.1484C50.7578 96.5603 51.1504 96.04 51.5341 95.3029C53.3932 99.9716 55.8687 101.683 60.2127 101.487C60.9401 101.454 61.6673 101.323 62.3875 101.193C65.3569 100.643 67.927 99.2038 70.0856 97.1774C72.1343 95.2645 73.9263 93.0758 75.8537 91.0245C76.2274 90.625 76.4435 89.8792 77.3864 90.2234C77.7049 91.0558 78.0025 91.981 78.4075 92.8562C79.5387 95.2843 81.9152 97.6343 85.8158 96.9875C87.0105 96.7868 88.2075 96.5227 89.3522 96.1151C92.7667 94.9079 95.5477 92.7443 98.0092 90.1131C98.7311 89.3439 99.4752 88.5941 100.437 87.5967C100.933 88.9423 101.293 89.9681 101.687 90.9773C103.82 96.4327 107.67 100.196 113.003 102.39C117.197 104.121 121.187 103.552 124.712 100.737C126.314 99.4536 127.675 97.8302 128.981 96.2178C130.135 94.8061 131.047 93.216 132.212 91.4808ZM158.368 72.7734C161.661 76.9078 164.985 80.6963 167.872 84.7976C172.802 91.793 176.282 99.4991 177.826 108.008C178.576 112.149 178.607 116.342 178.442 120.53C178.404 121.515 178.275 122.5 177.415 123.188C174.814 125.254 171.888 125.071 169.592 122.687C169.171 122.248 168.741 121.795 168.398 121.288C164.502 115.584 161.036 109.666 159.231 102.902C159.069 102.311 158.954 101.695 158.725 101.129C158.265 99.9777 156.74 99.7469 156.079 100.778C155.486 101.699 155.069 102.74 154.579 103.724C153.81 105.269 153.019 106.801 151.603 107.867C149.851 109.182 148.212 109.199 146.678 107.635C145.484 106.426 144.383 105.062 143.49 103.612C140.466 98.7 137.548 93.7098 134.583 88.7581C134.14 88.0191 133.742 87.2486 133.213 86.5791C132.593 85.7971 131.179 85.8597 130.658 86.7053C130.21 87.426 129.931 88.2537 129.557 89.0252C127.955 92.3785 126.03 95.5032 123.141 97.8994C120.331 100.234 117.171 100.65 113.883 99.2377C108.88 97.0823 105.499 93.3753 104.15 87.9812C103.729 86.3214 103.553 84.5943 103.275 82.9028C103.16 82.1816 103.132 81.4328 102.942 80.7313C102.722 79.9196 101.398 79.5966 100.816 80.187C100.487 80.5272 100.226 80.9465 99.9854 81.3642C99.321 82.5361 98.767 83.791 98.0144 84.8993C95.1731 89.0742 91.5876 92.3008 86.6018 93.5964C83.5462 94.3911 81.627 93.2492 80.8767 90.1402C80.4758 88.4719 80.3133 86.7368 80.0012 85.0478C79.8879 84.4528 79.6985 83.8634 79.4425 83.314C79.1697 82.7237 77.9564 82.4838 77.4964 82.9389C77.0684 83.3565 76.6811 83.8553 76.4075 84.3878C74.8756 87.3711 72.7863 89.9607 70.4935 92.3338C68.8984 93.9886 67.0147 95.4051 65.1243 96.731C63.4913 97.8694 61.5374 98.2387 59.541 98.2181C57.1686 98.1904 56.0286 97.3416 55.3354 95.0073C54.882 93.4762 54.5856 91.9053 54.1391 90.3737C53.8418 89.3572 53.9781 88.47 54.4377 87.5379C59.0453 78.1801 65.6185 70.5011 74.2545 64.7813C84.3616 58.0824 95.4586 54.3485 107.699 54.4381C110.272 54.458 112.811 54.5647 115.34 55.0299C119.287 55.762 123.245 56.4651 127.437 57.2281C128.191 59.158 130.028 60.1306 132.059 60.7099C133.806 61.212 135.611 61.6536 137.42 61.7722C138.586 61.8472 139.577 62.1738 140.494 62.7443C141.529 63.3834 142.483 64.1618 143.429 64.9337C145.707 66.7928 147.921 68.7268 150.23 70.5414C152.498 72.3522 155.039 73.455 158.368 72.7734ZM115.961 181.348C116.401 182.599 116.801 183.496 117.03 184.44C118.902 192.104 121.425 199.565 124.077 206.975C127.105 215.437 130.518 223.738 135.034 231.536C135.344 232.067 135.674 232.59 135.937 233.139C136.463 234.236 136.307 234.95 135.195 235.621C133.731 236.502 132.267 237.487 130.672 238.005C124.982 239.837 119.274 241.621 113.508 243.178C107.34 244.842 100.951 244.831 94.6205 245.23C87.9227 245.649 81.4895 244.469 75.1836 242.375C73.0033 241.653 70.768 240.843 69.5693 238.441C73.9858 221.393 80.2722 205.006 87.5164 188.977C88.9211 185.87 90.0581 182.621 91.9826 179.587C99.8427 181.454 107.74 181.655 115.961 181.348ZM146.617 250.261C145.995 250.595 145.393 251.011 144.73 251.25C140.597 252.714 136.493 254.274 132.305 255.545C123.425 258.238 114.411 260.344 105.109 260.893C100.486 261.165 95.8649 261.465 91.2365 261.668C85.2431 261.929 79.3055 261.345 73.4499 260.08C72.03 259.772 70.6441 259.264 69.2961 258.704C68.1058 258.21 67.3814 257.246 67.1918 255.899C66.5823 251.587 66.8833 247.368 68.4065 243.039C69.1055 243.282 69.6789 243.421 70.1983 243.678C75.5149 246.308 81.1573 247.792 87.018 248.277C93.2211 248.785 99.4367 248.332 105.623 247.769C113.44 247.056 120.896 244.757 128.321 242.319C131.347 241.323 134.254 240.105 136.957 238.403C137.436 238.101 137.977 237.906 138.435 237.697C141.161 241.116 145.418 247.67 146.617 250.261ZM132.955 45.9786C131.304 37.9124 130.697 29.9443 130.427 21.9442C130.359 19.9846 130.443 17.9997 130.66 16.047C130.874 14.1296 130.879 12.1295 132.036 10.0931C132.482 10.86 132.899 11.4255 133.153 12.0522C133.655 13.2991 133.983 14.6291 134.572 15.8344C134.777 16.2543 135.556 16.5474 136.086 16.5782C136.45 16.6004 136.979 16.1402 137.187 15.7599C137.469 15.2479 137.519 14.5987 137.663 14.0126C138.042 12.4619 138.372 10.9008 138.83 9.37933C138.969 8.90594 139.449 8.53358 139.817 8.05725C141.099 9.32353 141.719 10.6599 142.061 12.101C142.686 14.7281 143.221 17.3759 143.778 20.022C143.928 20.7406 143.882 21.5299 144.153 22.1905C144.363 22.6871 144.9 23.2718 145.372 23.3562C145.844 23.4405 146.597 23.097 146.901 22.6956C147.401 22.034 147.636 21.1606 147.996 20.3832C148.871 18.487 149.66 16.5481 150.652 14.7275C151.288 13.5576 152.17 12.496 153.071 11.5171C153.952 10.5606 155.189 10.6514 155.893 11.7149C156.566 12.7247 157.195 13.8217 157.551 14.9672C159.279 20.5016 158.921 25.931 156.178 31.0529C152.389 38.1327 146.637 43.3723 140.384 48.0315C137.765 47.2993 135.332 46.6305 132.955 45.9786ZM192.776 188.779C191.144 189.735 189.627 189.721 188.089 189.126C187.41 188.867 186.787 188.443 186.097 188.221C185.107 187.894 184.094 188.867 184.344 189.908C184.514 190.612 184.924 191.262 185.1 191.964C185.453 193.349 186.154 194.756 185.264 196.169C180.318 196.494 176.914 194.634 174.794 190.384C172.731 186.25 171.558 181.93 172.331 177.235C172.471 176.397 172.28 175.513 172.35 174.659C172.543 172.09 172.764 169.52 173.034 166.96C173.113 166.238 173.359 165.518 173.636 164.845C174.107 163.688 175.254 163.322 176.353 163.893C177.264 164.366 177.984 165.091 178.155 166.089C178.338 167.156 178.295 168.268 178.285 169.363C178.275 170.08 178.037 170.806 178.109 171.502C178.184 172.241 178.588 172.912 179.39 173.134C180.206 173.361 180.861 173.004 181.264 172.342C181.791 171.475 182.409 170.805 183.343 170.364C185.331 169.424 187.238 168.328 189.254 167.47C190.541 166.926 191.862 166.168 193.333 166.516C194.24 170.244 193.855 171.438 191.239 173.28C190.941 173.492 190.59 173.63 190.293 173.842C189.382 174.498 189.049 175.267 189.347 176.003C189.67 176.807 190.366 177.001 191.123 177.001C191.728 177.005 192.343 176.854 192.926 176.937C193.719 177.047 194.213 177.607 194.402 178.386C194.61 179.233 194.211 179.845 193.491 180.172C192.609 180.567 191.679 180.868 190.764 181.181C189.964 181.458 189.114 181.626 188.348 181.978C187.392 182.406 187.23 183.794 188.057 184.448C188.626 184.897 189.308 185.197 189.915 185.602C191.039 186.339 192.254 186.972 192.776 188.779ZM128.286 53.5587C123.575 53.6831 119.08 52.6689 114.599 51.4712C113.039 51.0535 112.512 49.9487 112.302 48.5049C111.585 43.4989 111.207 38.4608 111.378 33.4102C111.466 30.8286 111.958 28.2661 113.391 26.0198C114.619 24.0906 116.223 23.6068 118.012 24.9549C119.454 26.0408 120.783 27.3808 121.877 28.8294C124.634 32.4774 126.664 36.53 128.11 40.8855C128.924 43.3442 129.606 45.8127 129.846 48.4121C130.014 50.21 129.779 51.8412 128.286 53.5587ZM141.809 59.4544C142.238 57.8158 142.647 56.2909 143.034 54.7606C143.422 53.2234 143.774 51.6817 144.105 50.324C147.572 48.7971 159.216 45.598 162.685 45.2288C163.872 45.1058 165.102 44.727 166.326 45.4854C167.221 47.2644 166.616 49.0564 166.077 50.7944C164.351 56.3251 162.115 61.641 159.39 66.7475C159.158 67.1787 158.94 67.6228 158.65 68.0162C157.437 69.6708 155.987 70.0869 154.183 69.1891C153.202 68.7074 152.261 68.1035 151.411 67.4087C148.188 64.7987 145.015 62.1218 141.809 59.4544ZM169.439 150.428C170.285 149.081 170.843 148.163 171.437 147.263C174.565 142.54 177.223 137.572 179.086 132.2C179.608 130.695 180.008 129.142 180.529 127.63C181.314 125.355 183.027 124.358 185.387 124.885C188.356 125.549 190.472 127.294 191.212 130.347C192.673 136.407 190.808 141.576 186.54 145.814C182.581 149.735 177.45 150.852 172.091 151.038C171.39 151.062 170.685 150.729 169.439 150.428ZM30.7907 143.325C31.1546 143.831 31.659 144.355 31.9551 144.979C33.1446 147.445 33.5637 150.115 33.8664 152.808C33.9734 153.79 33.9652 154.906 35.116 155.242C36.5086 155.651 36.9477 154.44 37.5847 153.557C38.4363 152.379 39.3082 151.191 40.3162 150.155C40.6132 149.846 41.4702 149.873 41.9562 150.055C42.285 150.178 42.5753 150.816 42.621 151.248C42.7871 152.653 42.2707 153.947 41.4974 155.057C39.7497 157.565 37.8911 159.983 36.0846 162.446C34.2268 164.97 31.6441 165.673 28.6828 165.577C27.2404 165.529 25.7881 165.63 24.3417 165.716C21.6429 165.881 18.9822 165.713 16.4298 164.751C15.9294 164.564 15.5339 164.102 14.938 163.655C15.559 163.027 15.9261 162.536 16.4023 162.206C16.9972 161.79 17.6944 161.535 18.3127 161.153C19.7489 160.267 19.6784 158.932 18.1669 158.041C17.6439 157.736 17.0399 157.556 16.5489 157.214C16.0728 156.884 15.5501 156.488 15.8041 155.501C16.2468 155.377 16.7796 155.155 17.338 155.092C18.8267 154.919 19.7667 155.979 20.8899 156.696C21.2769 156.948 22.1416 156.891 22.5097 156.604C22.8843 156.309 23.1068 155.556 23.0614 155.033C23.0128 154.468 22.5095 153.958 22.3212 153.383C21.9376 152.233 21.5253 151.07 21.3332 149.878C21.2547 149.378 21.5548 148.64 21.9316 148.283C22.568 147.674 23.3901 148.076 23.8987 148.565C24.6763 149.307 25.3398 150.198 25.9686 151.092C26.598 151.993 27.0556 153.109 28.4462 152.831C29.3776 152.643 29.5968 151.749 29.424 149.685C29.3022 148.221 29.2007 146.748 29.2315 145.279C29.2503 144.4 29.5278 143.545 30.7907 143.325ZM45.3206 124.384C44.1403 123.742 43.5751 123.524 43.1246 123.165C42.3637 122.554 41.5613 121.947 40.9699 121.184C36.4848 115.405 33.7305 108.964 33.8745 101.481C33.9391 98.2061 35.3883 95.6078 37.7449 93.4405C39.6454 91.6859 42.5627 91.7504 44.1856 92.9283C46.1605 94.3538 47.619 96.2244 46.7711 98.8694C46.658 99.2216 46.58 99.5782 46.4956 99.9423C44.9905 106.593 44.589 113.317 45.1029 120.106C45.2051 121.305 45.2318 122.517 45.3206 124.384ZM26.5075 263.172C27.0907 263.164 27.7702 262.952 28.2322 263.184C29.6389 263.88 31.1143 264.564 32.2873 265.578C36.1846 268.945 38.5197 273.375 40.2286 278.175C40.7191 279.549 40.3561 280.754 39.4952 281.807C39.1295 281.75 38.8663 281.763 38.664 281.658C32.9284 278.814 29.1237 274.156 26.6448 268.34C25.9809 266.782 25.7892 265.028 26.5075 263.172ZM133.324 301.387C136.016 301.791 137.043 303.28 137.147 305.728C137.319 309.946 136.221 313.732 133.709 317.09C132.969 318.085 132.069 318.888 130.853 319.273C129.841 319.594 128.872 319.076 128.6 318.037C128.22 316.556 128.371 315.107 128.836 313.683C129.716 311.008 130.582 308.326 131.527 305.674C132.058 304.203 132.739 302.778 133.324 301.387ZM131.097 56.6202C132.456 54.3023 132.629 51.7494 134.305 49.7798C136.613 50.1562 138.636 50.8133 140.14 52.9332C139.836 54.1766 139.614 55.5052 139.178 56.7654C138.686 58.1982 137.896 58.6145 136.327 58.4501C134.618 58.2749 132.968 57.8569 131.097 56.6202Z" fill="#703F59"/>
<path fill-rule="evenodd" clip-rule="evenodd" d="M97.9355 143.612C97.9149 142.386 97.9969 141.138 97.8183 139.937C97.7488 139.465 97.1409 138.949 96.6502 138.704C96.1086 138.429 95.1178 139.134 95.0239 139.843C94.5735 143.265 94.2161 146.723 95.4412 150.056C97.3252 155.165 103.161 157.953 108.285 156.267C113.748 154.472 116.64 150.314 116.405 144.564C116.383 144.075 116.312 143.582 116.193 143.106C115.969 142.225 115.049 141.626 114.263 141.811C113.409 142.015 113.152 142.679 113.085 143.463C112.955 144.918 113.024 146.422 112.675 147.823C111.765 151.518 107.776 154.074 104.031 153.531C101.6 153.178 98.6632 150.484 98.2247 148.018C97.9728 146.577 97.9811 145.082 97.8728 143.61C97.901 143.615 97.9217 143.613 97.9355 143.612Z" fill="#703F59"/>
<path fill-rule="evenodd" clip-rule="evenodd" d="M129.826 134.427C130.059 137.314 132.719 139.545 135.626 139.287C138.243 139.051 140.236 136.664 140.059 133.969C139.871 131.12 137.538 129.265 134.478 129.528C131.308 129.805 129.598 131.602 129.826 134.427Z" fill="#703F59"/>
<path fill-rule="evenodd" clip-rule="evenodd" d="M76.1157 122.426C76.5458 126.008 80.8327 128.251 83.9158 126.506C85.7242 125.481 86.6105 123.072 85.9141 121.067C84.9263 118.222 81.0776 116.55 78.367 117.782C76.786 118.496 75.8749 120.381 76.1157 122.426Z" fill="#703F59"/>
<path fill-rule="evenodd" clip-rule="evenodd" d="M219.425 447.496C217.859 450.452 217.487 453.107 217.649 455.86C217.936 460.646 219.527 462.544 224.294 463.571C229.347 464.657 234.425 465.603 239.477 466.649C245.359 467.862 251.233 469.124 257.096 470.357C258.379 468.469 259.382 466.691 260.698 465.168C262.23 463.37 263.838 461.519 265.759 460.161C271.14 456.369 276.652 456.596 282.053 460.428C284.955 462.485 286.911 465.22 288.257 468.403C288.719 469.493 288.978 470.65 289.392 472.009C290.359 472.151 291.351 472.46 292.321 472.414C300.937 471.99 309.554 471.567 318.156 471.006C320.377 470.863 322.595 470.374 324.774 469.867C326.592 469.442 328.457 468.947 329.916 467.31C330.291 464.467 328.955 461.818 328.494 459.194C327.141 457.9 325.722 458.517 324.4 458.587C320.16 458.786 316.171 458.096 312.57 455.709C306.847 451.919 305.309 444.372 309.237 438.726C311.713 435.161 314.941 432.834 319.615 433.222C320.432 433.29 321.271 433.169 322.094 433.138C321.999 429.028 318.62 414.766 315.726 406.102C314.529 405.831 313.203 405.515 311.887 405.218C308.84 404.522 305.918 403.524 303.359 401.712C300.084 399.402 298.244 396.376 298.198 392.264C298.14 387.311 299.157 382.753 302.92 379.239C304.379 377.869 306.217 376.91 308.158 375.581C307.878 371.24 306.823 366.899 304.828 362.622C300.696 362.283 296.814 363.151 292.75 363.334C291.896 364.632 291.081 365.909 290.215 367.148C288.939 368.976 287.511 370.652 285.493 371.776C281.544 373.972 277.436 373.77 273.9 371.025C271.566 369.215 269.669 367.031 268.739 364.178C268.428 363.231 268.05 362.296 267.722 361.388C263.884 360.019 260.196 358.714 256.358 357.346C254.539 359.837 254.127 362.731 252.484 365.235C253.67 365.992 254.523 366.503 255.339 367.076C258.723 369.431 260.856 372.693 261.981 376.528C264.152 383.942 259.113 392.42 251.541 394.534C248.726 395.323 246.07 394.869 243.42 394.049C242.13 393.652 240.928 392.995 239.452 392.349C236.657 396.815 235.4 401.768 233.565 406.455C231.712 411.203 230.008 416.014 228.156 421.039C228.854 421.339 229.407 421.704 230 421.81C236.38 422.964 239.081 427.52 240.515 433.054C241.626 437.324 240.583 441.171 237.023 444.074C235.433 445.37 233.825 446.697 232.038 447.684C228.732 449.519 225.229 450.027 221.628 448.422C221.02 448.158 220.402 447.914 219.425 447.496ZM260.148 420.853C259.88 414.207 263.138 408.744 268.813 405.742C273.642 403.177 279.162 404.166 283.023 407.976C288.248 413.14 288.158 423.577 285.153 427.952C283.237 430.734 281.005 432.964 277.397 433.278C271.912 433.761 267.21 432.089 263.393 428.138C261.281 425.953 260.318 423.289 260.148 420.853Z" fill="#6CDCF2"/>
<path fill-rule="evenodd" clip-rule="evenodd" d="M301.782 276.261C294.5 273.815 287.45 269.967 278.994 272.045C278.235 274.052 277.571 275.966 276.797 277.834C275.617 280.648 274.458 283.49 273.099 286.231C271.577 289.315 269.439 291.967 266.542 293.965C264.993 295.032 263.434 296.119 261.957 297.272C251.223 305.608 233.551 303.889 223.281 294.723C221.515 293.147 220.087 291.184 218.5 289.384C217.223 289.61 217.613 290.584 217.67 291.334C218.33 299.537 220.301 307.365 224.099 314.748C228.786 323.858 233.882 332.646 241.136 340.107C251.858 351.136 264.927 357.211 280.353 358.41C297.756 359.753 314.298 356.42 330.15 349.336C341.206 344.391 351.483 338.258 360.829 330.598C371.994 321.455 379.697 310.009 384.592 296.642C384.815 296.03 384.818 295.348 384.956 294.581C381.52 293.702 378.212 292.857 374.567 291.926C374.183 292.672 373.664 293.493 373.315 294.376C368.805 305.721 360.553 313.528 349.617 318.816C325.15 327.668 305.565 311.553 302.724 293.305C301.936 288.241 301.239 283.234 302.038 278.12C302.089 277.644 301.903 277.127 301.782 276.261ZM273.372 304.27C274.909 304.439 277.461 304.739 280.022 305.008C286.168 305.677 292.297 306.425 298.456 306.916C300.208 307.057 301.366 307.587 302.224 309.029C303.114 310.528 303.692 312.089 303.581 313.833C303.253 318.959 302.251 323.892 299.475 328.358C296.569 333.026 292.515 335.572 286.86 335.953C278.719 336.507 271.867 334.292 269.623 323.864C268.661 319.39 267.845 314.901 266.913 310.427C265.871 305.393 266.573 304.496 271.815 304.328C271.981 304.322 272.158 304.315 273.372 304.27Z" fill="#FFEFF4"/>
<path fill-rule="evenodd" clip-rule="evenodd" d="M217.089 252.214C212.699 257.838 213.064 263.916 214.341 270.247C216.723 281.996 224.327 289.631 234.416 295.264C237.391 296.922 240.72 297.806 244.297 297.711C250.53 297.546 256.169 295.939 260.961 291.862C261.483 291.417 261.975 290.914 262.56 290.575C266.845 288.159 269.099 284.178 270.872 279.908C272.762 275.357 274.364 270.718 275.211 265.84C276.089 260.733 275.765 255.741 274.411 250.759C273.534 247.518 271.769 244.904 269.284 242.723C266.14 239.964 262.398 238.285 258.447 237.019C256.838 236.506 255.389 236.828 254.241 238.127C253.111 239.406 251.831 240.581 250.863 241.963C245.929 249.052 238.667 251.599 230.435 252.077C226.138 252.328 221.836 252.184 217.089 252.214ZM242.563 265.259C242.454 263.928 242.929 262.199 243.986 260.567C245.794 257.769 248.425 257.047 251.554 257.563C254.041 257.963 255.41 259.682 255.94 263.074C256.094 264.067 256.163 265.103 256.033 266.087C255.549 269.685 252.597 272.041 248.865 271.935C245.379 271.828 242.823 269.334 242.563 265.259Z" fill="#FFEFF4"/>
<path fill-rule="evenodd" clip-rule="evenodd" d="M334.175 251.387C332.192 251.076 330.605 251.67 328.966 252.176C318.25 255.477 305.489 269.398 306.547 284.558C306.759 287.596 307.157 290.637 307.691 293.634C309.956 306.177 322.747 318.998 341.295 316.055C345.615 315.368 349.59 313.863 353.206 311.393C358.227 307.951 362.444 303.737 365.818 298.734C368.159 295.254 368.692 293.494 368.935 289.499C366.408 288.031 363.742 286.53 361.113 284.957C352.083 279.571 344.87 272.405 339.675 263.354C338.154 260.711 336.978 257.868 335.687 255.098C335.123 253.903 334.683 252.643 334.175 251.387ZM322.873 283.044C322.735 279.37 326.527 275.321 330.192 275.223C334.22 275.12 338.333 279.129 338.571 283.393C338.783 287.222 335.341 290.387 330.813 290.508C326.276 290.64 323.043 287.606 322.873 283.044Z" fill="#FFEFF4"/>
<path fill-rule="evenodd" clip-rule="evenodd" d="M332.482 234.974C330.849 234.58 329.355 234.231 327.859 233.862C320.987 232.133 315.858 228.251 312.391 222.102C309.239 216.504 307.795 210.447 306.788 204.224C306.53 202.592 306.205 200.983 305.932 199.44C304.112 199.311 304.104 200.666 303.711 201.433C301.09 206.634 297.785 211.367 294.18 215.944C288.307 223.374 280.782 228.582 272.05 232.214C270.33 232.922 268.601 233.62 266.349 234.535C267.701 235.543 268.552 236.262 269.487 236.86C275.288 240.617 278.634 245.881 279.837 252.61C280.619 256.992 280.763 261.358 280.255 265.877C284.263 266.556 288.175 267.013 291.965 267.908C295.786 268.813 299.495 270.166 303.455 271.392C309.453 258.666 318.22 249.148 332.908 246.083C332.764 242.499 332.633 239.003 332.482 234.974Z" fill="#FFEFF4"/>
<path fill-rule="evenodd" clip-rule="evenodd" d="M161.046 423.06C164.164 423.279 166.2 423.43 168.235 423.561C169.475 423.643 170.678 423.815 171.208 425.14C171.663 426.29 171.167 427.456 169.689 428.589C168.879 429.223 167.935 429.694 167.156 430.356C166.386 431.008 165.609 431.739 165.091 432.59C164.823 433.035 164.962 433.87 165.208 434.395C165.336 434.667 166.168 434.883 166.545 434.75C167.833 434.286 169.066 433.686 170.299 433.086C171.378 432.561 172.379 431.801 173.505 431.472C174.204 431.268 175.318 431.423 175.816 431.879C176.324 432.345 176.59 433.433 176.44 434.14C176.165 435.446 175.455 436.66 175.042 437.951C174.719 439.002 175.529 439.95 176.718 439.995C178.162 440.049 179.508 439.84 179.996 438.2C180.457 436.64 181.069 435.163 183.093 435.522C184.772 435.815 184.865 437.255 185.172 438.638C185.759 441.227 188.86 442.554 191.166 441.28C191.705 440.983 192.19 440.322 192.365 439.742C193.278 436.622 193.766 433.429 193.292 430.193C192.777 426.662 192.097 423.167 191.524 419.638C191.322 418.439 190.816 417.499 190.014 416.511C188.121 414.159 186.006 411.904 185.619 408.645C185.508 407.769 184.657 406.803 183.889 406.189C179.377 402.531 174.269 400.241 168.323 400.228C165.341 400.221 164.323 401.585 164.744 404.457C164.997 406.227 165.758 407.702 167.173 408.796C168.254 409.635 169.419 410.363 170.538 411.161C171.555 411.885 172.422 412.752 172.002 414.123C171.66 415.213 170.715 415.635 169.611 415.755C165.498 416.217 163.619 419.205 161.046 423.06Z" fill="#FFEFF4"/>
<path fill-rule="evenodd" clip-rule="evenodd" d="M371 328.446C373.928 329.621 376.542 329.473 379.072 329.457C383.397 329.423 387.658 328.738 391.787 327.416C395.626 326.184 399.043 324.196 401.789 321.284C405.619 317.213 407.71 312.546 406.222 306.856C405.617 304.564 405.32 302.153 404.415 299.991C403.65 298.161 402.39 296.448 401.038 294.946C399.012 292.698 396.263 292.376 393.414 293.057C392.646 293.244 391.823 293.79 391.336 294.401C390.502 295.451 389.722 296.618 389.258 297.862C385.271 308.485 379.839 318.253 372.052 326.675C371.741 327.023 371.554 327.515 371 328.446Z" fill="#FFEFF4"/>
<path fill-rule="evenodd" clip-rule="evenodd" d="M350.389 454.424C352.171 453.803 352.336 452.442 352.649 451.115C353.335 448.221 354.123 447.252 355.442 447.628C357.673 448.256 357.321 450.138 357.423 451.806C357.519 453.325 357.577 454.866 357.848 456.359C357.995 457.134 358.58 457.834 358.908 458.465C361.032 458.85 362.015 457.616 362.75 456.263C363.475 454.93 363.819 453.395 364.564 452.071C364.923 451.434 365.83 450.757 366.506 450.752C367.192 450.736 368.089 451.355 368.562 451.96C369.18 452.738 369.331 453.889 369.958 454.657C370.914 455.808 372.032 456.863 373.233 457.767C373.657 458.088 374.597 458.023 375.168 457.813C376.174 457.449 376.184 456.41 375.911 455.649C375.046 453.269 374.066 450.922 373.057 448.596C372.52 447.351 371.722 446.214 371.272 444.945C370.725 443.443 372.258 441.674 373.832 442.04C375.316 442.39 376.762 443.008 378.177 443.597C379.921 444.333 381.565 445.29 383.354 445.895C384.397 446.251 385.608 446.116 387.104 446.228C386.261 442.858 384.492 440.66 382.084 438.96C381.308 438.416 380.185 438.29 379.197 438.09C378.198 437.88 377.14 437.91 376.159 437.651C375.069 437.365 374.383 436.59 374.515 435.408C374.648 434.226 375.508 433.63 376.591 433.471C377.606 433.324 378.657 433.373 379.686 433.354C384.097 433.248 387.1 430.939 389.232 427.338C390.135 425.801 389.334 424.298 387.506 423.952C387.338 423.918 387.169 423.875 386.993 423.872C378.188 423.729 369.902 425.376 362.436 430.334C358.751 432.777 356.084 435.953 354.078 439.767C352.65 442.481 351.241 445.195 349.822 447.908C348.979 449.503 348.934 451.186 349.389 452.86C349.538 453.438 350.057 453.932 350.389 454.424Z" fill="#FFEFF4"/>
<path fill-rule="evenodd" clip-rule="evenodd" d="M212.903 294.193C212.449 289.147 212.05 284.247 211.543 279.361C211.421 278.198 211.005 277.047 210.6 275.925C207.943 268.627 208.023 261.306 210.238 253.924C210.579 252.813 210.839 251.627 210.825 250.48C210.794 247.03 208.98 245.219 205.481 245.024C202.59 244.856 200.053 245.733 197.899 247.673C193.96 251.214 191.986 255.6 192.26 260.831C192.531 265.964 193.619 270.917 196.289 275.435C200.207 282.091 204.992 288.063 210.521 293.472C210.888 293.824 211.349 294.084 211.79 294.344C211.89 294.4 212.093 294.303 212.903 294.193Z" fill="#FFEFF4"/>
<path fill-rule="evenodd" clip-rule="evenodd" d="M365.96 332.463C368.847 333.057 371.039 333.449 373.197 333.951C375.384 334.472 377.587 335.151 378.849 337.16C382.582 343.062 386.364 348.953 389.837 355.003C391.169 357.317 392.084 359.992 392.564 362.614C393.586 368.164 391.245 370.615 385.473 370.239C383.802 370.134 382.084 369.586 380.557 368.881C378.7 368.022 377.016 366.799 375.268 365.708C374.103 364.981 373.03 364.101 371.829 363.454C369.406 362.141 367.806 362.894 367.363 365.491C367.139 366.835 367.172 368.228 366.818 369.527C366.145 371.975 365.522 374.481 364.41 376.738C361.768 382.149 359.82 380.679 357.187 377.96C355.881 376.614 354.564 375.23 353.06 374.12C350.982 372.576 348.796 372.876 347.094 374.848C346.097 376.004 345.304 377.339 344.459 378.617C343.717 379.762 343.086 380.973 342.314 382.1C340.694 384.435 338.388 385.461 335.593 384.944C330.792 384.066 326.772 382.002 324.846 377.219C324.274 375.806 323.807 374.34 323.428 372.861C322.436 368.913 321.503 364.933 320.599 360.962C320.422 360.187 320.519 359.363 320.478 358.276C337.252 352.235 352.704 344.147 365.96 332.463Z" fill="#F3C888"/>
<path fill-rule="evenodd" clip-rule="evenodd" d="M189.944 330.237C190.065 328.749 190.388 327.174 191.055 325.853C191.968 324.049 193.048 322.218 194.476 320.819C198.744 316.643 203.165 312.61 207.656 308.653C209.556 306.98 211.73 305.582 214.629 304.682C215.904 307.809 216.908 310.52 218.095 313.136C223.267 324.473 229.455 335.168 238.346 344.179C241.446 347.326 241.56 349.062 239.305 352.747C236.152 357.899 231.555 361.405 225.787 363.224C219.853 365.09 215.709 363.129 213.476 357.467C212.415 354.797 210.738 353.753 207.97 353.986C207.119 354.057 206.246 354.051 205.39 353.984C201.583 353.692 200.077 351.721 201.113 348.211C201.497 346.931 202.177 345.718 202.809 344.518C203.441 343.317 204.272 342.208 204.845 340.99C205.681 339.208 204.653 337.436 202.715 337.282C201.514 337.179 200.304 337.353 199.104 337.27C197.57 337.169 195.989 337.11 194.521 336.69C191.199 335.728 189.677 333.579 189.944 330.237Z" fill="#F3C888"/>
<path fill-rule="evenodd" clip-rule="evenodd" d="M221.915 237.77C221.221 238.36 220.364 238.788 218.899 239.743C220.368 233.665 222.05 228.538 224.278 223.598C229.786 211.415 238.162 201.398 248.048 192.432C254.632 186.458 262.06 182.054 270.452 179.038C277.159 176.63 284.074 175.292 291.098 174.513C297.663 173.781 304.227 174.078 310.618 175.786C317.93 177.736 325.242 179.676 332.328 182.376C341.801 185.985 350.259 191.017 357.084 198.534C358.69 200.303 360.172 202.413 362.195 203.533C365.551 205.395 367.503 208.279 369.497 211.23C374.078 218.039 377.861 225.285 381.114 232.787C386.945 246.255 389.776 260.31 389.187 274.969C389.001 279.684 388.421 284.374 386.841 288.804C382.197 289.484 378.367 288.342 374.978 286.363C374.095 280.858 373.322 275.665 372.412 270.488C371.289 264.092 368.533 258.588 363.343 254.383C357.172 249.383 350.203 246.372 342.196 245.783C341.005 245.69 339.824 245.596 338.723 245.509C337.159 240.949 337.113 239.734 338.316 234.922C339.084 231.837 338.581 230.986 335.438 230.343C333.243 229.891 331.015 229.609 328.839 229.108C323.505 227.884 319.547 224.859 316.831 220.174C314.408 215.993 312.994 211.487 312.14 206.772C311.191 201.586 310.466 196.382 310.376 191.094C310.352 189.918 310.16 188.719 309.795 187.605C309.351 186.247 307.409 185.727 306.366 186.676C304.981 187.935 303.714 189.219 302.99 191.086C301.629 194.568 300.11 198.018 298.34 201.308C290.93 215.087 280.252 225.171 264.779 229.798C260.772 230.987 256.86 232.084 252.664 230.857C251.682 230.568 250.622 230.539 249.588 230.439C239.428 229.466 229.949 230.961 221.915 237.77Z" fill="#F3C888"/>
<path fill-rule="evenodd" clip-rule="evenodd" d="M340.075 250.987C340.384 250.857 340.699 250.607 340.993 250.616C351.196 250.885 358.936 255.618 364.929 263.452C365.434 264.106 365.739 264.935 366.044 265.724C368.146 271.312 368.759 277.193 369.743 283.565C356.171 278.972 340.538 261.512 340.075 250.987Z" fill="#F3C888"/>
<path fill-rule="evenodd" clip-rule="evenodd" d="M220.419 247.311C224.707 238.437 238.745 232.696 249.162 236.063C248.218 237.324 247.311 238.516 246.425 239.736C243.896 243.183 240.52 245.239 236.321 246.297C231.229 247.577 226.107 247.285 220.419 247.311Z" fill="#F3C888"/>
<path fill-rule="evenodd" clip-rule="evenodd" d="M277.128 538.466C285.423 540.705 296.993 537.956 302.503 532.635C302.469 531.212 301.473 530.528 300.266 530.257C295.18 529.083 290.03 528.832 284.885 529.738C282.653 530.129 280.651 531.163 279.025 532.787C277.502 534.298 276.555 536.005 277.128 538.466Z" fill="#F9BD70"/>
<path fill-rule="evenodd" clip-rule="evenodd" d="M182.324 503.77C183.435 502.512 183.5 501.372 182.918 500.237C179.957 494.504 176.546 489.074 171.673 484.689C170.181 483.34 168.602 482.055 166.05 482.27C165.804 483.307 165.321 484.275 165.404 485.192C165.564 486.847 165.854 488.557 166.461 490.106C168.714 495.797 175.718 501.804 182.324 503.77Z" fill="#F9BD70"/>
<path fill-rule="evenodd" clip-rule="evenodd" d="M315.459 383.768C315.333 383.556 315.197 383.345 315.062 383.134C315.105 383.24 315.1 383.378 315.182 383.444C315.293 383.538 315.452 383.581 315.592 383.645C315.582 383.645 315.459 383.768 315.459 383.768Z" fill="#FFEFF4"/>
<path fill-rule="evenodd" clip-rule="evenodd" d="M248.846 390.651C253.455 390.616 258.731 383.772 258.022 379.753C257.464 376.639 256.283 373.915 253.964 371.727C251.849 369.73 249.886 369.952 248.587 372.454C246.4 376.68 244.304 380.952 242.288 385.261C241.388 387.174 241.939 388.538 243.961 389.361C245.505 389.966 247.211 390.228 248.846 390.651Z" fill="#FFE7A4"/>
<path fill-rule="evenodd" clip-rule="evenodd" d="M221.068 442.342C223.316 445.007 225.898 445.592 228.937 444.212C229.863 443.791 230.775 443.282 231.628 442.726C237.479 438.916 237.938 432.579 232.747 427.829C230.096 425.397 226.598 426.013 225.29 429.346C223.614 433.583 222.137 437.891 221.068 442.342Z" fill="#FFE7A4"/>
<path fill-rule="evenodd" clip-rule="evenodd" d="M327.157 453.084C326.359 449.306 325.654 445.683 324.803 442.086C323.954 438.518 319.762 436.589 316.317 438.113C313.364 439.421 312.094 441.931 311.686 444.913C311.285 447.826 312.265 450.173 314.849 451.836C318.679 454.313 322.667 454.726 327.157 453.084Z" fill="#FFE7A4"/>
<path fill-rule="evenodd" clip-rule="evenodd" d="M263.032 471.173C270.264 472.542 277.182 472.865 284.201 472.482C283.39 466.797 279.437 462.604 274.431 462.001C273.308 461.866 272.041 462.101 270.947 462.479C267.083 463.811 265.321 465.756 263.032 471.173Z" fill="#FFE7A4"/>
<path fill-rule="evenodd" clip-rule="evenodd" d="M309.403 380.509C307.979 381.265 307 381.578 306.307 382.188C304.607 383.686 303.58 385.594 303.115 387.846C301.644 394.943 304.624 399.331 311.861 400.572C313.134 400.791 314.204 399.761 313.899 398.408C313.005 394.456 312.024 390.527 311.043 386.589C310.604 384.815 310.096 383.044 309.403 380.509Z" fill="#FFE7A4"/>
<path fill-rule="evenodd" clip-rule="evenodd" d="M273.204 362.617C274.642 366.182 276.53 368.405 279.952 368.633C281.191 368.714 282.621 368.127 283.755 367.491C285.042 366.77 286.159 365.679 286.299 363.657C281.966 363.473 277.854 362.896 273.204 362.617Z" fill="#FFE7A4"/>
<path fill-rule="evenodd" clip-rule="evenodd" d="M282.983 418.946C282.484 417.165 282.218 415.286 281.459 413.633C279.25 408.841 273.747 407.544 269.409 410.625C267.23 412.171 265.726 414.176 265.076 416.742C263.3 423.801 269.844 430.378 277.181 428.787C278.407 428.523 279.637 427.567 280.504 426.625C282.464 424.494 282.874 421.808 282.983 418.946Z" fill="#FFE7A4"/>
<path fill-rule="evenodd" clip-rule="evenodd" d="M298.503 313.402C295.493 311.864 292.698 311.366 289.746 311.111C284.953 310.698 280.205 309.888 275.424 309.287C274.439 309.156 273.44 309.203 272.094 309.165C272.105 310.223 271.998 311.038 272.154 311.803C273.022 316.122 273.851 320.442 274.884 324.725C275.834 328.625 278.473 330.712 282.568 331.101C290.956 331.913 294.175 329.062 296.792 322.971C298.074 320.025 298.879 316.889 298.503 313.402Z" fill="#F2F3F5"/>
<path fill-rule="evenodd" clip-rule="evenodd" d="M216.661 286.656C216.362 278.656 221.705 271.246 230.021 271.17C237.915 271.09 244.391 278.224 246.127 285.537C247.408 290.948 245.985 296.688 242.423 300.333C238.125 306.329 229.582 306.354 224.118 301.635C219.474 298.378 216.88 292.235 216.661 286.656Z" fill="#FEDAC6"/>
<path fill-rule="evenodd" clip-rule="evenodd" d="M332.136 303.324C336.327 294.751 345.892 293.194 353.872 297.245C361.332 301.029 364.875 309.47 363.617 317.538C362.492 324.701 356.047 328.612 349.54 329.589C344.712 330.315 338.971 328.157 335.763 324.48C335.199 323.839 334.703 323.156 334.274 322.45C330.286 317.072 329.247 309.229 332.136 303.324Z" fill="#FEDAC6"/>
<path fill-rule="evenodd" clip-rule="evenodd" d="M315.46 383.771C316.209 384.643 317.101 385.42 317.677 386.378C321.622 392.974 326.035 399.246 330.927 405.184C335.696 410.988 340.484 416.781 345.396 422.48C347.939 425.43 350.759 428.173 353.71 431.266C352.598 433.266 351.438 435.307 350.319 437.387C348.705 440.385 347.011 443.346 345.587 446.436C344.071 449.707 344.314 453.06 345.896 456.274C347.488 459.498 348.593 459.941 352.508 459.18C352.82 459.119 353.166 459.185 353.627 459.197C354.194 459.928 354.746 460.787 355.45 461.512C357.684 463.792 360.218 464.141 362.9 462.409C364.308 461.505 365.518 460.283 366.945 459.092C368.132 459.888 369.167 460.808 370.384 461.356C371.762 461.986 373.275 462.592 374.761 462.694C378.389 462.923 380.572 460.705 380.506 457.118C380.481 455.932 380.358 454.74 380.129 453.581C379.92 452.452 379.515 451.35 379.131 449.98C380.794 449.353 381.968 450.298 383.184 450.559C385.251 451.005 387.251 451.246 389.28 450.409C390.893 449.735 391.693 448.567 391.727 446.865C391.778 444.559 390.898 442.545 389.68 440.662C388.774 439.252 387.743 437.926 386.666 436.404C387.703 435.544 388.709 434.883 389.49 434.013C390.856 432.498 392.32 430.989 393.294 429.232C395.721 424.878 393.536 420.51 388.551 419.659C386.536 419.31 384.418 419.33 382.364 419.487C373.816 420.164 365.702 422.23 358.733 427.338C356.251 427.096 354.505 425.767 352.991 424.113C350.905 421.848 348.762 419.624 346.828 417.244C340.361 409.299 333.759 401.448 327.664 393.231C324.018 388.325 321.029 382.919 318.082 377.551C315.239 372.367 312.82 366.959 310.048 361.318C311.728 360.849 313.33 360.403 314.834 359.98C316.248 361.569 316.566 363.248 316.96 364.875C317.751 368.178 318.493 371.493 319.303 374.795C320.089 377.96 321.242 381.002 323.463 383.46C326.962 387.324 331.573 389.168 336.719 389.568C339.778 389.799 342.488 388.559 344.572 386.315C345.722 385.065 346.639 383.607 347.596 382.196C348.452 380.937 349.226 379.623 350.226 378.032C351.224 378.736 352.056 379.229 352.766 379.855C353.923 380.87 354.929 382.058 356.122 383.022C359.522 385.802 363.23 385.524 366.158 382.259C368.126 380.058 369.372 377.44 370.249 374.658C370.757 373.046 371.147 371.4 371.7 369.391C372.546 369.715 373.308 369.914 373.989 370.274C375.801 371.245 377.531 372.386 379.37 373.296C383.107 375.133 387.005 375.234 390.941 373.968C395.234 372.58 397.45 369.648 397.46 365.217C397.474 360.875 396.116 356.822 393.985 353.095C391.791 349.251 389.309 345.567 386.961 341.808C385.532 339.528 383.9 337.344 382.952 334.571C385.404 333.49 387.811 333.34 390.107 332.819C395.252 331.656 399.891 329.513 403.8 325.984C409.503 320.834 412.458 314.611 411.118 306.859C410.681 304.353 410.243 301.818 409.417 299.416C406.642 291.322 401.968 288.037 392.983 287.801C392.919 286.884 392.647 285.895 392.818 284.979C396.255 265.921 392.663 247.82 385.228 230.258C382.107 222.88 378.244 215.875 373.891 209.126C370.725 204.211 366.875 199.876 362.436 196.067C355.392 190.033 348.06 184.414 339.581 180.402C337.884 179.595 336.14 178.88 334.388 178.194C333.113 177.688 331.721 177.434 330.492 176.837C324.567 173.955 318.108 172.794 311.808 171.162C302.655 168.777 293.382 168.977 284.095 170.613C277.79 171.73 271.649 173.306 265.706 175.686C258.931 178.403 252.778 182.007 247.237 186.765C235.775 196.602 226.158 207.783 219.896 221.568C217.277 227.333 215.591 233.39 213.845 239.429C213.576 240.368 213.218 241.292 212.794 242.534C211.756 242.059 211.035 241.68 210.288 241.382C204.401 238.983 199.117 240.112 194.515 244.26C189.524 248.77 187.163 254.367 187.474 261.1C187.78 267.695 189.539 273.81 193.074 279.413C197.173 285.934 201.968 291.915 207.555 297.283C208.643 298.33 209.732 299.376 211.096 300.68C210.228 301.346 209.62 301.883 208.94 302.314C202.101 306.735 196.214 312.208 190.787 318.168C188.092 321.118 186.297 324.518 185.444 328.476C184.392 333.391 186.853 339.114 193.339 341.016C194.162 341.252 195.03 341.358 195.87 341.534C196.681 341.711 197.493 341.908 198.552 342.165C197.908 343.831 197.292 345.189 196.845 346.6C194.781 353.067 198.008 357.761 204.856 358.315C206.056 358.408 207.255 358.472 208.632 358.558C209.236 359.762 209.802 360.987 210.473 362.148C212.279 365.304 215.066 367.187 218.65 367.794C222.47 368.431 226.186 368.123 229.783 366.475C236.264 363.501 241.359 359.156 244.413 352.672C244.694 352.068 245.046 351.501 245.431 350.775C246.139 351.104 246.795 351.326 247.348 351.691C248.465 352.44 249.536 353.27 250.868 354.249C250.194 355.372 249.703 356.429 248.991 357.326C240.638 367.935 232.357 378.612 223.822 389.08C217.735 396.538 210.822 403.187 202.094 407.709C199.814 408.892 197.44 409.931 195.053 410.891C192.965 411.731 191.986 411.264 190.92 409.237C190.761 408.936 190.641 408.615 190.522 408.303C189.007 404.008 185.845 401.279 181.82 399.363C178.084 397.576 174.287 395.978 170.05 395.752C169.529 395.722 169.024 395.592 168.514 395.582C162.381 395.536 158.873 399.841 160.338 405.69C160.662 406.994 161.229 408.258 161.862 409.45C162.4 410.469 163.199 411.358 164.213 412.774C162.98 413.898 161.617 414.949 160.496 416.197C159.366 417.466 158.279 418.832 157.511 420.325C156.251 422.815 156.908 424.897 159.235 426.53C160.051 427.103 161.016 427.482 162.216 428.089C161.713 429.048 161.204 429.878 160.825 430.752C158.656 435.71 161.048 439.318 166.439 439.224C167.469 439.205 168.483 439.048 169.421 438.954C169.775 439.237 170.124 439.392 170.262 439.664C172.327 443.72 174.138 444.937 178.325 444.097C180.866 443.586 182.932 443.756 185.187 445.026C186.459 445.74 188.163 445.913 189.694 445.944C193.484 446.029 196.006 444.213 196.88 440.59C197.916 436.289 198.548 431.953 197.528 427.482C196.66 423.697 196.201 419.828 195.541 415.818C197.266 414.991 198.777 414.222 200.321 413.541C207.973 410.138 214.56 405.281 220.442 399.413C225.917 393.956 230.583 387.836 235.38 381.821C237.488 379.17 239.586 376.5 241.74 373.778C242.725 374.928 241.889 375.662 241.55 376.298C234.088 390.543 229.106 405.762 223.456 420.721C220.101 429.609 217.172 438.65 214.283 447.679C213.114 451.313 212.841 455.002 213.54 458.754C214.353 463.183 216.924 466.093 221.299 467.402C223.095 467.938 224.944 468.323 227.202 468.891C226.342 470.308 225.749 471.497 224.945 472.546C221.718 476.752 218.461 480.939 215.143 485.069C209.941 491.545 203.817 496.968 196.141 500.49C193.816 501.557 191.526 502.731 188.74 502.737C186.387 495.428 182.03 489.362 177.205 483.629C175.696 481.837 173.568 480.552 171.669 479.09C171.134 478.685 170.465 478.384 169.811 478.201C164.985 476.899 161.393 477.885 160.876 483.997C160.609 487.102 161.29 490.093 162.786 492.845C166.41 499.513 171.81 504.353 178.746 507.504C180.971 508.508 183.224 508.414 185.752 508.081C197.309 506.548 206.392 500.777 214.224 492.739C216.963 489.926 219.438 486.846 221.923 483.805C224.296 480.888 226.557 477.885 228.799 474.873C230.004 473.246 231.068 471.534 232.238 469.779C242.15 471.72 252.1 473.64 262.042 475.62C271.876 477.574 281.923 476.582 292.036 477.349C293.95 493.367 294.626 509.324 299.89 524.425C297.728 525.644 296.014 524.927 294.343 524.841C290.716 524.642 287.122 524.54 283.546 525.446C280.271 526.271 277.464 527.811 275.182 530.27C273.099 532.514 272.207 535.159 272.478 538.224C272.699 540.718 273.987 542.361 276.339 543.093C277.64 543.499 279.025 543.813 280.39 543.86C289.105 544.234 297.09 541.887 304.444 537.328C306.85 535.843 308.699 533.864 309.298 530.994C309.631 529.419 309.319 528.164 307.751 527.67C305.616 526.988 304.827 525.554 304.267 523.696C301.979 516.029 300.051 508.289 299.126 500.343C298.243 492.751 297.517 485.153 296.694 477.322C297.932 477.117 299.09 476.846 300.253 476.753C306.786 476.22 313.332 475.766 319.854 475.204C323.658 474.883 327.375 474.09 330.793 472.35C334.479 470.47 335.305 468.946 334.409 464.935C331.247 450.684 328.084 436.414 324.698 422.211C322.021 410.978 319.004 399.817 316.211 388.619C315.807 387.002 315.782 385.292 315.582 383.618C315.442 383.554 315.283 383.501 315.172 383.416C315.091 383.35 315.096 383.211 315.053 383.104C315.199 383.346 315.334 383.558 315.46 383.771ZM338.712 245.489C337.148 240.929 337.103 239.714 338.306 234.902C339.073 231.818 338.571 230.966 335.427 230.323C333.232 229.872 331.005 229.589 328.828 229.088C323.495 227.865 319.536 224.839 316.82 220.155C314.398 215.973 312.983 211.468 312.13 206.753C311.18 201.567 310.456 196.362 310.366 191.075C310.341 189.899 310.149 188.699 309.784 187.586C309.341 186.228 307.399 185.707 306.355 186.657C304.97 187.915 303.704 189.199 302.979 191.066C301.618 194.549 300.099 197.998 298.329 201.289C290.919 215.067 280.241 225.151 264.768 229.778C260.761 230.967 256.849 232.064 252.654 230.837C251.672 230.548 250.611 230.519 249.577 230.419C239.437 229.446 229.958 230.95 221.914 237.75C221.22 238.34 220.363 238.768 218.898 239.723C220.368 233.645 222.049 228.518 224.278 223.578C229.786 211.395 238.161 201.378 248.047 192.411C254.631 186.437 262.059 182.034 270.451 179.018C277.159 176.61 284.073 175.272 291.097 174.493C297.662 173.761 304.226 174.058 310.617 175.766C317.929 177.716 325.241 179.656 332.327 182.356C341.801 185.965 350.258 190.997 357.083 198.514C358.689 200.283 360.171 202.393 362.194 203.513C365.55 205.375 367.502 208.258 369.496 211.21C374.077 218.019 377.86 225.265 381.113 232.767C386.944 246.235 389.775 260.29 389.186 274.949C389 279.664 388.42 284.354 386.84 288.784C382.196 289.463 378.367 288.322 374.977 286.343C374.094 280.838 373.321 275.645 372.411 270.468C371.289 264.072 368.532 258.568 363.342 254.362C357.171 249.363 350.202 246.352 342.195 245.763C341.005 245.679 339.814 245.576 338.712 245.489ZM219.426 447.495C220.413 447.903 221.021 448.157 221.629 448.421C225.23 450.026 228.743 449.518 232.039 447.683C233.826 446.696 235.434 445.37 237.024 444.074C240.584 441.161 241.627 437.324 240.516 433.054C239.082 427.52 236.381 422.964 230.001 421.809C229.398 421.704 228.855 421.338 228.157 421.038C230.009 416.014 231.713 411.212 233.566 406.455C235.401 401.758 236.657 396.805 239.453 392.348C240.939 392.994 242.141 393.651 243.421 394.048C246.071 394.868 248.727 395.322 251.542 394.534C259.114 392.419 264.163 383.942 261.982 376.527C260.857 372.693 258.724 369.431 255.34 367.076C254.524 366.503 253.661 365.992 252.485 365.235C254.128 362.73 254.539 359.827 256.359 357.345C260.187 358.714 263.885 360.019 267.723 361.388C268.051 362.295 268.429 363.23 268.74 364.178C269.68 367.04 271.567 369.214 273.901 371.025C277.437 373.77 281.545 373.981 285.494 371.776C287.512 370.651 288.94 368.976 290.216 367.147C291.082 365.908 291.897 364.632 292.751 363.333C296.815 363.151 300.697 362.283 304.829 362.622C306.824 366.898 307.879 371.24 308.159 375.581C306.218 376.919 304.37 377.869 302.921 379.239C299.158 382.753 298.151 387.311 298.199 392.263C298.245 396.376 300.085 399.402 303.36 401.712C305.929 403.524 308.85 404.521 311.888 405.218C313.213 405.514 314.53 405.821 315.727 406.102C318.621 414.765 322 429.018 322.095 433.138C321.272 433.169 320.433 433.28 319.616 433.221C314.933 432.844 311.714 435.161 309.238 438.725C305.31 444.372 306.848 451.919 312.571 455.709C316.172 458.095 320.161 458.786 324.401 458.586C325.724 458.527 327.142 457.91 328.495 459.194C328.956 461.817 330.292 464.467 329.917 467.309C328.458 468.947 326.593 469.442 324.775 469.866C322.596 470.374 320.378 470.863 318.157 471.006C309.555 471.557 300.938 471.99 292.322 472.413C291.352 472.459 290.36 472.141 289.393 472.009C288.97 470.65 288.711 469.493 288.258 468.402C286.912 465.219 284.956 462.484 282.054 460.428C276.653 456.606 271.131 456.369 265.76 460.161C263.839 461.519 262.231 463.369 260.699 465.167C259.393 466.69 258.39 468.469 257.097 470.357C251.234 469.124 245.36 467.861 239.478 466.649C234.426 465.602 229.339 464.657 224.295 463.571C219.528 462.544 217.937 460.645 217.65 455.86C217.478 453.107 217.85 450.462 219.426 447.495ZM301.783 276.261C301.904 277.127 302.1 277.644 302.019 278.111C301.22 283.225 301.917 288.232 302.705 293.296C305.546 311.544 325.131 327.659 349.598 318.807C360.534 313.51 368.786 305.703 373.296 294.367C373.645 293.484 374.164 292.663 374.548 291.917C378.193 292.848 381.501 293.693 384.938 294.572C384.809 295.338 384.796 296.021 384.573 296.633C379.678 310 371.965 321.446 360.81 330.589C351.464 338.259 341.188 344.391 330.131 349.327C314.279 356.411 297.747 359.743 280.334 358.401C264.908 357.202 251.849 351.126 241.117 340.098C233.873 332.637 228.767 323.849 224.08 314.739C220.272 307.356 218.311 299.518 217.651 291.325C217.584 290.576 217.204 289.601 218.481 289.375C220.079 291.184 221.496 293.138 223.262 294.714C233.532 303.88 251.205 305.599 261.938 297.263C263.425 296.109 264.974 295.023 266.523 293.956C269.42 291.958 271.558 289.306 273.08 286.222C274.44 283.481 275.599 280.649 276.778 277.825C277.552 275.957 278.216 274.043 278.975 272.036C287.451 269.967 294.501 273.815 301.783 276.261ZM217.09 252.213C221.836 252.172 226.138 252.327 230.425 252.067C238.657 251.579 245.919 249.041 250.853 241.952C251.821 240.561 253.101 239.395 254.231 238.116C255.378 236.807 256.828 236.495 258.437 237.009C262.388 238.274 266.14 239.953 269.274 242.712C271.769 244.893 273.525 247.517 274.401 250.748C275.755 255.731 276.089 260.732 275.201 265.829C274.354 270.707 272.742 275.346 270.862 279.897C269.09 284.177 266.835 288.148 262.551 290.565C261.965 290.893 261.464 291.407 260.951 291.851C256.169 295.928 250.52 297.535 244.287 297.7C240.711 297.805 237.392 296.921 234.406 295.253C224.307 289.621 216.703 281.985 214.331 270.236C213.055 263.925 212.7 257.837 217.09 252.213ZM334.175 251.386C334.683 252.642 335.123 253.902 335.688 255.107C336.978 257.877 338.154 260.72 339.675 263.363C344.87 272.414 352.093 279.579 361.113 284.966C363.742 286.538 366.408 288.04 368.935 289.508C368.702 293.502 368.169 295.253 365.818 298.743C362.444 303.746 358.227 307.969 353.206 311.402C349.59 313.872 345.615 315.377 341.295 316.063C322.747 318.997 309.966 306.176 307.692 293.642C307.148 290.646 306.749 287.596 306.548 284.567C305.49 269.406 318.241 255.486 328.967 252.185C330.605 251.668 332.192 251.075 334.175 251.386ZM332.482 234.973C332.632 239.003 332.763 242.489 332.898 246.083C318.21 249.148 309.453 258.665 303.445 271.392C299.486 270.176 295.776 268.823 291.955 267.908C288.164 267.003 284.263 266.556 280.245 265.877C280.753 261.358 280.609 256.982 279.827 252.61C278.624 245.891 275.278 240.627 269.477 236.86C268.542 236.252 267.691 235.533 266.339 234.535C268.6 233.62 270.32 232.922 272.04 232.214C280.772 228.582 288.297 223.374 294.169 215.944C297.785 211.377 301.09 206.634 303.701 201.433C304.093 200.656 304.101 199.301 305.921 199.44C306.195 200.973 306.52 202.592 306.777 204.224C307.785 210.447 309.228 216.504 312.381 222.102C315.848 228.251 320.977 232.133 327.849 233.862C329.354 234.231 330.848 234.58 332.482 234.973ZM365.962 332.462C368.848 333.055 371.041 333.447 373.198 333.95C375.385 334.471 377.589 335.149 378.851 337.159C382.584 343.061 386.365 348.951 389.838 355.001C391.171 357.315 392.085 359.99 392.566 362.613C393.588 368.162 391.247 370.614 385.474 370.238C383.803 370.132 382.085 369.584 380.558 368.88C378.701 368.02 377.017 366.798 375.27 365.707C374.105 364.979 373.032 364.1 371.83 363.453C369.407 362.139 367.807 362.892 367.365 365.49C367.141 366.833 367.173 368.227 366.819 369.526C366.146 371.974 365.524 374.48 364.411 376.737C361.769 382.147 359.821 380.678 357.188 377.958C355.882 376.613 354.565 375.228 353.062 374.118C350.983 372.574 348.797 372.874 347.095 374.847C346.099 376.002 345.305 377.337 344.46 378.615C343.719 379.761 343.087 380.971 342.315 382.098C340.695 384.434 338.389 385.46 335.594 384.942C330.794 384.064 326.773 382 324.848 377.217C324.275 375.805 323.808 374.339 323.429 372.86C322.438 368.912 321.504 364.931 320.6 360.96C320.424 360.185 320.52 359.361 320.48 358.275C337.254 352.234 352.705 344.146 365.962 332.462ZM214.639 304.681C215.914 307.807 216.918 310.519 218.105 313.134C223.277 324.471 229.465 335.166 238.356 344.177C241.456 347.324 241.57 349.061 239.315 352.745C236.162 357.898 231.565 361.404 225.797 363.223C219.863 365.088 215.719 363.128 213.486 357.466C212.425 354.796 210.747 353.751 207.98 353.984C207.129 354.056 206.256 354.049 205.4 353.982C201.593 353.69 200.087 351.72 201.123 348.209C201.507 346.929 202.187 345.717 202.819 344.516C203.451 343.315 204.282 342.206 204.855 340.988C205.691 339.206 204.663 337.435 202.725 337.28C201.524 337.177 200.314 337.351 199.114 337.268C197.58 337.167 195.999 337.108 194.531 336.689C191.209 335.736 189.687 333.588 189.954 330.245C190.075 328.757 190.399 327.182 191.065 325.861C191.979 324.057 193.058 322.226 194.487 320.827C198.755 316.652 203.175 312.618 207.667 308.662C209.565 306.968 211.74 305.581 214.639 304.681ZM161.047 423.06C163.62 419.205 165.49 416.217 169.613 415.775C170.727 415.654 171.662 415.233 172.004 414.142C172.424 412.781 171.558 411.914 170.54 411.181C169.421 410.382 168.256 409.665 167.175 408.815C165.76 407.721 164.999 406.247 164.746 404.476C164.325 401.604 165.343 400.231 168.325 400.247C174.27 400.261 179.388 402.55 183.891 406.208C184.659 406.822 185.51 407.789 185.621 408.665C186.008 411.924 188.123 414.178 190.016 416.53C190.808 417.509 191.323 418.449 191.526 419.658C192.099 423.177 192.779 426.682 193.294 430.213C193.768 433.448 193.28 436.641 192.366 439.761C192.192 440.342 191.707 441.003 191.168 441.3C188.862 442.573 185.761 441.246 185.174 438.657C184.858 437.285 184.774 435.834 183.095 435.541C181.061 435.183 180.459 436.659 179.998 438.219C179.51 439.86 178.174 440.078 176.72 440.014C175.531 439.97 174.721 439.021 175.044 437.971C175.457 436.679 176.167 435.466 176.442 434.16C176.592 433.452 176.326 432.364 175.818 431.899C175.32 431.443 174.206 431.287 173.507 431.491C172.372 431.821 171.38 432.58 170.301 433.105C169.077 433.705 167.835 434.306 166.547 434.77C166.17 434.903 165.338 434.697 165.21 434.415C164.964 433.89 164.825 433.045 165.093 432.609C165.611 431.759 166.388 431.028 167.158 430.375C167.937 429.713 168.881 429.233 169.691 428.609C171.169 427.465 171.674 426.299 171.21 425.159C170.679 423.825 169.476 423.662 168.237 423.58C166.211 423.419 164.175 423.278 161.047 423.06ZM371.001 328.445C371.554 327.514 371.742 327.022 372.072 326.664C379.86 318.251 385.291 308.474 389.278 297.85C389.742 296.607 390.523 295.45 391.356 294.39C391.843 293.768 392.666 293.223 393.434 293.046C396.273 292.365 399.032 292.687 401.058 294.934C402.409 296.426 403.67 298.149 404.435 299.98C405.341 302.151 405.637 304.553 406.242 306.844C407.73 312.534 405.649 317.201 401.809 321.272C399.063 324.184 395.646 326.182 391.807 327.404C387.678 328.727 383.417 329.411 379.092 329.446C376.542 329.472 373.938 329.61 371.001 328.445ZM350.388 454.424C350.055 453.922 349.537 453.427 349.377 452.84C348.922 451.166 348.967 449.483 349.81 447.889C351.229 445.175 352.638 442.462 354.067 439.748C356.072 435.934 358.739 432.758 362.424 430.315C369.9 425.365 378.177 423.709 386.981 423.852C387.148 423.856 387.316 423.899 387.494 423.932C389.322 424.288 390.133 425.781 389.22 427.318C387.098 430.919 384.085 433.228 379.675 433.335C378.646 433.363 377.594 433.304 376.579 433.451C375.506 433.61 374.636 434.207 374.504 435.388C374.372 436.58 375.057 437.346 376.147 437.631C377.128 437.891 378.186 437.861 379.185 438.07C380.173 438.271 381.287 438.397 382.072 438.941C384.48 440.63 386.25 442.838 387.092 446.209C385.597 446.097 384.385 446.231 383.342 445.875C381.564 445.27 379.909 444.303 378.165 443.578C376.75 442.988 375.314 442.37 373.82 442.02C372.256 441.654 370.724 443.423 371.26 444.925C371.72 446.194 372.508 447.331 373.045 448.577C374.045 450.903 375.035 453.249 375.899 455.63C376.173 456.401 376.162 457.429 375.156 457.794C374.575 458.003 373.646 458.068 373.222 457.748C372.02 456.844 370.902 455.798 369.947 454.637C369.319 453.87 369.168 452.718 368.551 451.94C368.077 451.345 367.19 450.716 366.495 450.732C365.818 450.748 364.912 451.425 364.553 452.051C363.808 453.375 363.463 454.911 362.738 456.244C362.004 457.596 361.02 458.83 358.896 458.445C358.569 457.815 357.983 457.115 357.837 456.339C357.555 454.846 357.498 453.316 357.411 451.786C357.309 450.119 357.661 448.236 355.43 447.608C354.111 447.232 353.324 448.211 352.637 451.095C352.335 452.442 352.17 453.803 350.388 454.424ZM212.903 294.194C212.083 294.313 211.881 294.41 211.781 294.345C211.339 294.084 210.879 293.835 210.512 293.473C204.973 288.064 200.197 282.082 196.28 275.435C193.609 270.917 192.521 265.964 192.251 260.832C191.977 255.6 193.951 251.214 197.889 247.674C200.043 245.734 202.581 244.857 205.471 245.025C208.98 245.219 210.784 247.03 210.815 250.481C210.829 251.627 210.559 252.814 210.228 253.925C208.003 261.307 207.924 268.628 210.591 275.925C210.995 277.038 211.411 278.189 211.534 279.361C212.05 284.247 212.449 289.147 212.903 294.194ZM369.743 283.573C356.171 278.971 340.538 261.501 340.075 250.986C340.384 250.855 340.699 250.606 340.993 250.615C351.195 250.884 358.936 255.616 364.928 263.451C365.434 264.104 365.739 264.933 366.043 265.723C368.146 271.32 368.749 277.192 369.743 283.573ZM248.846 390.65C247.211 390.227 245.505 389.974 243.951 389.351C241.929 388.537 241.378 387.163 242.277 385.25C244.304 380.951 246.39 376.669 248.576 372.443C249.876 369.942 251.839 369.719 253.954 371.717C256.273 373.904 257.454 376.638 258.012 379.743C258.741 383.77 253.455 390.615 248.846 390.65ZM220.418 247.311C224.706 238.436 238.745 232.696 249.161 236.062C248.217 237.324 247.31 238.515 246.424 239.735C243.895 243.183 240.519 245.239 236.321 246.297C231.228 247.576 226.107 247.284 220.418 247.311ZM221.068 442.34C222.137 437.889 223.614 433.581 225.28 429.345C226.587 426.012 230.086 425.396 232.737 427.828C237.928 432.578 237.469 438.914 231.617 442.725C230.765 443.281 229.862 443.789 228.926 444.21C225.898 445.59 223.316 445.005 221.068 442.34ZM327.158 453.083C322.677 454.715 318.679 454.302 314.859 451.845C312.276 450.182 311.296 447.835 311.697 444.922C312.105 441.94 313.365 439.43 316.327 438.122C319.772 436.588 323.964 438.517 324.814 442.095C325.655 445.683 326.35 449.316 327.158 453.083ZM277.127 538.465C276.555 536.004 277.501 534.297 279.024 532.786C280.65 531.162 282.652 530.118 284.884 529.737C290.029 528.831 295.189 529.082 300.265 530.256C301.472 530.537 302.469 531.211 302.502 532.634C296.992 537.954 285.422 540.704 277.127 538.465ZM182.324 503.77C175.717 501.803 168.714 495.797 166.46 490.106C165.843 488.557 165.564 486.846 165.403 485.191C165.32 484.274 165.794 483.317 166.049 482.269C168.602 482.054 170.18 483.34 171.673 484.688C176.545 489.074 179.956 494.503 182.918 500.236C183.5 501.372 183.434 502.511 182.324 503.77ZM263.033 471.172C265.322 465.765 267.084 463.81 270.947 462.468C272.042 462.09 273.298 461.855 274.431 461.99C279.437 462.593 283.391 466.786 284.202 472.472C277.173 472.865 270.265 472.531 263.033 471.172ZM309.403 380.508C310.097 383.043 310.604 384.814 311.044 386.598C312.025 390.537 313.006 394.465 313.899 398.417C314.205 399.771 313.135 400.79 311.861 400.581C304.625 399.34 301.645 394.942 303.116 387.855C303.581 385.603 304.608 383.705 306.308 382.197C307.001 381.588 307.98 381.264 309.403 380.508ZM273.203 362.615C277.844 362.896 281.956 363.473 286.299 363.655C286.159 365.688 285.032 366.769 283.754 367.49C282.621 368.126 281.201 368.713 279.952 368.632C276.539 368.404 274.651 366.181 273.203 362.615Z" fill="#664E2B"/>
<path fill-rule="evenodd" clip-rule="evenodd" d="M260.149 420.853C260.319 423.289 261.282 425.952 263.394 428.138C267.211 432.088 271.904 433.761 277.398 433.277C281.006 432.964 283.238 430.734 285.155 427.952C288.159 423.576 288.249 413.129 283.024 407.976C279.163 404.165 273.643 403.176 268.814 405.741C263.139 408.744 259.881 414.207 260.149 420.853ZM282.983 418.945C282.884 421.807 282.474 424.482 280.504 426.614C279.627 427.556 278.397 428.513 277.181 428.776C269.854 430.377 263.3 423.79 265.076 416.731C265.726 414.165 267.23 412.16 269.409 410.614C273.737 407.544 279.24 408.84 281.459 413.622C282.218 415.285 282.485 417.173 282.983 418.945Z" fill="#664E2B"/>
<path fill-rule="evenodd" clip-rule="evenodd" d="M273.373 304.271C272.159 304.317 271.982 304.323 271.816 304.33C266.574 304.487 265.872 305.394 266.914 310.428C267.846 314.893 268.662 319.392 269.624 323.865C271.869 334.303 278.72 336.508 286.861 335.954C292.526 335.573 296.58 333.027 299.476 328.359C302.251 323.893 303.264 318.96 303.582 313.835C303.693 312.09 303.105 310.52 302.225 309.03C301.367 307.589 300.219 307.058 298.457 306.917C292.298 306.427 286.159 305.679 280.022 305.01C277.461 304.73 274.91 304.441 273.373 304.271ZM298.504 313.403C298.87 316.89 298.075 320.025 296.793 322.981C294.166 329.063 290.957 331.914 282.569 331.112C278.474 330.722 275.835 328.636 274.885 324.735C273.851 320.452 273.013 316.132 272.155 311.813C271.999 311.048 272.115 310.232 272.095 309.175C273.441 309.213 274.439 309.166 275.425 309.297C280.205 309.898 284.954 310.708 289.747 311.121C292.699 311.366 295.494 311.864 298.504 313.403Z" fill="#664E2B"/>
<path fill-rule="evenodd" clip-rule="evenodd" d="M242.563 265.258C242.823 269.332 245.379 271.827 248.865 271.923C252.597 272.04 255.549 269.674 256.032 266.076C256.162 265.092 256.094 264.046 255.939 263.063C255.42 259.671 254.041 257.962 251.554 257.551C248.425 257.046 245.804 257.768 243.985 260.556C242.928 262.188 242.454 263.927 242.563 265.258Z" fill="#664E2B"/>
<path fill-rule="evenodd" clip-rule="evenodd" d="M322.872 283.042C323.043 287.605 326.276 290.638 330.813 290.507C335.34 290.376 338.783 287.22 338.571 283.391C338.333 279.127 334.22 275.129 330.192 275.221C326.536 275.319 322.735 279.368 322.872 283.042Z" fill="#664E2B"/>
</svg>
