<svg width="273" height="384" viewBox="0 0 273 384" fill="none" xmlns="http://www.w3.org/2000/svg">
<path fill-rule="evenodd" clip-rule="evenodd" d="M72.4253 282.496C70.8585 285.452 70.487 288.107 70.6489 290.86C70.936 295.646 72.5275 297.544 77.2941 298.571C82.3475 299.657 87.425 300.603 92.4769 301.649C98.3589 302.862 104.233 304.124 110.096 305.357C111.379 303.469 112.382 301.691 113.698 300.168C115.23 298.37 116.838 296.519 118.759 295.161C124.14 291.369 129.652 291.596 135.053 295.428C137.955 297.485 139.911 300.22 141.257 303.403C141.719 304.493 141.978 305.65 142.392 307.009C143.359 307.151 144.351 307.46 145.321 307.414C153.937 306.99 162.554 306.567 171.156 306.006C173.377 305.863 175.595 305.374 177.774 304.867C179.592 304.442 181.457 303.947 182.916 302.31C183.291 299.467 181.955 296.818 181.494 294.194C180.141 292.9 178.722 293.517 177.4 293.587C173.16 293.786 169.171 293.096 165.57 290.709C159.847 286.919 158.309 279.372 162.237 273.726C164.713 270.161 167.941 267.834 172.615 268.222C173.432 268.29 174.271 268.169 175.094 268.138C174.999 264.028 171.62 249.766 168.726 241.102C167.529 240.831 166.203 240.515 164.887 240.218C161.84 239.522 158.918 238.524 156.359 236.712C153.084 234.402 151.244 231.376 151.198 227.264C151.14 222.311 152.157 217.753 155.92 214.239C157.379 212.869 159.217 211.91 161.158 210.581C160.878 206.24 159.823 201.899 157.828 197.622C153.696 197.283 149.814 198.151 145.75 198.334C144.896 199.632 144.081 200.909 143.215 202.148C141.939 203.976 140.511 205.652 138.493 206.776C134.544 208.972 130.436 208.77 126.9 206.025C124.566 204.215 122.669 202.031 121.739 199.178C121.428 198.231 121.05 197.296 120.722 196.388C116.884 195.019 113.196 193.714 109.358 192.346C107.539 194.837 107.127 197.731 105.484 200.235C106.67 200.992 107.523 201.503 108.339 202.076C111.723 204.431 113.856 207.693 114.981 211.528C117.152 218.942 112.113 227.42 104.541 229.534C101.726 230.323 99.0698 229.869 96.4199 229.049C95.1298 228.652 93.9281 227.995 92.4521 227.349C89.6568 231.815 88.4002 236.768 86.5647 241.455C84.7118 246.203 83.0085 251.014 81.1561 256.039C81.854 256.339 82.4073 256.704 82.9998 256.81C89.38 257.964 92.0814 262.52 93.5147 268.054C94.6261 272.324 93.5832 276.171 90.0231 279.074C88.4334 280.37 86.8252 281.697 85.0376 282.684C81.7318 284.519 78.2292 285.027 74.6279 283.422C74.0196 283.158 73.4022 282.914 72.4253 282.496ZM113.148 255.853C112.88 249.207 116.138 243.744 121.813 240.742C126.642 238.177 132.162 239.166 136.023 242.976C141.248 248.14 141.158 258.577 138.153 262.952C136.237 265.734 134.005 267.964 130.397 268.278C124.912 268.761 120.21 267.089 116.393 263.138C114.281 260.953 113.318 258.289 113.148 255.853Z" fill="#6CDCF2"/>
<path fill-rule="evenodd" clip-rule="evenodd" d="M154.782 111.261C147.5 108.815 140.45 104.967 131.994 107.045C131.235 109.052 130.571 110.966 129.797 112.834C128.617 115.648 127.458 118.49 126.099 121.231C124.577 124.315 122.439 126.967 119.542 128.965C117.993 130.032 116.434 131.119 114.957 132.272C104.223 140.608 86.551 138.889 76.2806 129.723C74.5148 128.147 73.0875 126.184 71.4997 124.384C70.2231 124.61 70.6127 125.584 70.6702 126.334C71.3304 134.537 73.3009 142.365 77.0989 149.748C81.7855 158.858 86.8819 167.646 94.1358 175.107C104.858 186.136 117.927 192.211 133.353 193.41C150.756 194.753 167.298 191.42 183.15 184.336C194.206 179.391 204.483 173.258 213.829 165.598C224.994 156.455 232.697 145.009 237.592 131.642C237.815 131.03 237.818 130.348 237.956 129.581C234.52 128.702 231.212 127.857 227.567 126.926C227.183 127.672 226.664 128.493 226.315 129.376C221.805 140.721 213.553 148.528 202.617 153.816C178.15 162.668 158.565 146.553 155.724 128.305C154.936 123.241 154.239 118.234 155.038 113.12C155.089 112.644 154.903 112.127 154.782 111.261ZM126.372 139.27C127.909 139.439 130.461 139.739 133.022 140.008C139.168 140.677 145.297 141.425 151.456 141.916C153.208 142.057 154.366 142.587 155.224 144.029C156.114 145.528 156.692 147.089 156.581 148.833C156.253 153.959 155.251 158.892 152.475 163.358C149.569 168.026 145.515 170.572 139.86 170.953C131.719 171.507 124.867 169.292 122.623 158.864C121.661 154.39 120.845 149.901 119.913 145.427C118.871 140.393 119.573 139.496 124.815 139.328C124.981 139.322 125.158 139.315 126.372 139.27Z" fill="#FFEFF4"/>
<path fill-rule="evenodd" clip-rule="evenodd" d="M70.0894 87.2138C65.6992 92.8382 66.0641 98.9165 67.3409 105.247C69.723 116.996 77.3266 124.631 87.4157 130.264C90.3912 131.922 93.7204 132.806 97.2973 132.711C103.53 132.546 109.169 130.939 113.961 126.862C114.483 126.417 114.975 125.914 115.56 125.575C119.845 123.159 122.099 119.178 123.872 114.908C125.762 110.357 127.364 105.718 128.211 100.84C129.089 95.7334 128.765 90.7414 127.411 85.7585C126.534 82.518 124.769 79.9044 122.284 77.7233C119.14 74.9637 115.398 73.2849 111.447 72.0194C109.838 71.5063 108.389 71.8278 107.241 73.127C106.111 74.4058 104.831 75.5814 103.863 76.9628C98.9288 84.0515 91.667 86.5995 83.4351 87.0774C79.1381 87.3282 74.8361 87.1835 70.0894 87.2138ZM95.5626 100.259C95.4539 98.9279 95.9287 97.1991 96.9859 95.5671C98.7941 92.7694 101.425 92.0474 104.554 92.5625C107.041 92.9634 108.41 94.6821 108.94 98.0741C109.094 99.0672 109.163 100.103 109.033 101.087C108.549 104.685 105.597 107.041 101.865 106.935C98.3787 106.828 95.823 104.334 95.5626 100.259Z" fill="#FFEFF4"/>
<path fill-rule="evenodd" clip-rule="evenodd" d="M187.175 86.3868C185.192 86.0757 183.605 86.6695 181.966 87.1763C171.25 90.4773 158.489 104.398 159.547 119.558C159.759 122.596 160.157 125.637 160.691 128.634C162.956 141.177 175.747 153.998 194.295 151.055C198.615 150.368 202.59 148.863 206.206 146.393C211.227 142.951 215.444 138.737 218.818 133.734C221.159 130.254 221.692 128.494 221.935 124.499C219.408 123.031 216.742 121.53 214.113 119.957C205.083 114.571 197.87 107.405 192.675 98.354C191.154 95.7114 189.978 92.8678 188.687 90.0978C188.123 88.9027 187.683 87.6434 187.175 86.3868ZM175.873 118.044C175.735 114.37 179.527 110.321 183.192 110.223C187.22 110.12 191.333 114.129 191.571 118.393C191.783 122.222 188.341 125.387 183.813 125.508C179.276 125.64 176.043 122.606 175.873 118.044Z" fill="#FFEFF4"/>
<path fill-rule="evenodd" clip-rule="evenodd" d="M185.482 69.9736C183.849 69.5802 182.355 69.2309 180.859 68.862C173.987 67.1328 168.858 63.2512 165.391 57.1018C162.239 51.5042 160.795 45.4467 159.788 39.2245C159.53 37.5925 159.205 35.9828 158.932 34.4404C157.112 34.3111 157.104 35.6663 156.711 36.4327C154.09 41.6344 150.785 46.3674 147.18 50.9436C141.307 58.3742 133.782 63.5825 125.05 67.2143C123.33 67.9218 121.601 68.6199 119.349 69.5354C120.701 70.5427 121.552 71.2623 122.487 71.8601C128.288 75.6174 131.634 80.8813 132.837 87.6105C133.619 91.9918 133.763 96.3577 133.255 100.877C137.263 101.556 141.175 102.013 144.965 102.908C148.786 103.813 152.495 105.166 156.455 106.392C162.453 93.6658 171.22 84.1483 185.908 81.0835C185.764 77.499 185.633 74.0029 185.482 69.9736Z" fill="#FFEFF4"/>
<path fill-rule="evenodd" clip-rule="evenodd" d="M14.046 258.06C17.1638 258.279 19.2 258.43 21.2355 258.561C22.4746 258.643 23.6778 258.815 24.2081 260.14C24.6631 261.29 24.1672 262.456 22.6892 263.589C21.8791 264.223 20.9354 264.694 20.1558 265.356C19.3856 266.008 18.6086 266.739 18.0911 267.59C17.8233 268.035 17.9624 268.87 18.2077 269.395C18.3356 269.667 19.1677 269.883 19.5453 269.75C20.8326 269.286 22.0657 268.686 23.2989 268.086C24.3779 267.561 25.3795 266.801 26.5051 266.472C27.2037 266.268 28.3181 266.423 28.8158 266.879C29.3237 267.345 29.59 268.433 29.4399 269.14C29.1651 270.446 28.4552 271.66 28.0425 272.951C27.7189 274.002 28.5293 274.95 29.7179 274.995C31.162 275.049 32.5078 274.84 32.9958 273.2C33.4573 271.64 34.0691 270.163 36.0935 270.522C37.772 270.815 37.8652 272.255 38.172 273.638C38.7594 276.227 41.8599 277.554 44.1665 276.28C44.7047 275.983 45.1901 275.322 45.3645 274.742C46.2778 271.622 46.7664 268.429 46.2922 265.193C45.7774 261.662 45.0972 258.167 44.5237 254.638C44.3219 253.439 43.8158 252.499 43.0137 251.511C41.1207 249.159 39.0057 246.904 38.6189 243.645C38.5076 242.769 37.6572 241.803 36.8887 241.189C32.3767 237.531 27.2685 235.241 21.3234 235.228C18.3411 235.221 17.3228 236.585 17.7442 239.457C17.9969 241.227 18.7585 242.702 20.1727 243.796C21.2538 244.635 22.4189 245.363 23.5376 246.161C24.5555 246.885 25.4218 247.752 25.0022 249.123C24.6605 250.213 23.7149 250.635 22.6109 250.755C18.4984 251.217 16.6189 254.205 14.046 258.06Z" fill="#FFEFF4"/>
<path fill-rule="evenodd" clip-rule="evenodd" d="M224 163.446C226.928 164.621 229.542 164.473 232.072 164.457C236.397 164.423 240.658 163.738 244.787 162.416C248.626 161.184 252.043 159.196 254.789 156.284C258.619 152.213 260.71 147.546 259.222 141.856C258.617 139.564 258.32 137.153 257.415 134.991C256.65 133.161 255.39 131.448 254.038 129.946C252.012 127.698 249.263 127.376 246.414 128.057C245.646 128.244 244.823 128.79 244.336 129.401C243.502 130.451 242.722 131.618 242.258 132.862C238.271 143.485 232.839 153.253 225.052 161.675C224.741 162.023 224.554 162.515 224 163.446Z" fill="#FFEFF4"/>
<path fill-rule="evenodd" clip-rule="evenodd" d="M203.389 289.424C205.171 288.803 205.336 287.442 205.649 286.115C206.335 283.221 207.123 282.252 208.442 282.628C210.673 283.256 210.321 285.138 210.423 286.806C210.519 288.325 210.577 289.866 210.848 291.359C210.995 292.134 211.58 292.834 211.908 293.465C214.032 293.85 215.015 292.616 215.75 291.263C216.475 289.93 216.819 288.395 217.564 287.071C217.923 286.434 218.83 285.757 219.506 285.752C220.192 285.736 221.089 286.355 221.562 286.96C222.18 287.738 222.331 288.889 222.958 289.657C223.914 290.808 225.032 291.863 226.233 292.767C226.657 293.088 227.597 293.023 228.168 292.813C229.174 292.449 229.184 291.41 228.911 290.649C228.046 288.269 227.066 285.922 226.057 283.596C225.52 282.351 224.722 281.214 224.272 279.945C223.725 278.443 225.258 276.674 226.832 277.04C228.316 277.39 229.762 278.008 231.177 278.597C232.921 279.333 234.565 280.29 236.354 280.895C237.397 281.251 238.608 281.116 240.104 281.228C239.261 277.858 237.492 275.66 235.084 273.96C234.308 273.416 233.185 273.29 232.197 273.09C231.198 272.88 230.14 272.91 229.159 272.651C228.069 272.365 227.383 271.59 227.515 270.408C227.648 269.226 228.508 268.63 229.591 268.471C230.606 268.324 231.657 268.373 232.686 268.354C237.097 268.248 240.1 265.939 242.232 262.338C243.135 260.801 242.334 259.298 240.506 258.952C240.338 258.918 240.169 258.875 239.993 258.872C231.188 258.729 222.902 260.376 215.436 265.334C211.751 267.777 209.084 270.953 207.078 274.767C205.65 277.481 204.241 280.195 202.822 282.908C201.979 284.503 201.934 286.186 202.389 287.86C202.538 288.438 203.057 288.932 203.389 289.424Z" fill="#FFEFF4"/>
<path fill-rule="evenodd" clip-rule="evenodd" d="M65.9028 129.193C65.449 124.147 65.0498 119.247 64.5432 114.361C64.4212 113.198 64.0053 112.047 63.6003 110.925C60.9435 103.627 61.0226 96.3059 63.2379 88.9239C63.5789 87.8134 63.8385 86.6267 63.825 85.48C63.794 82.0297 61.9801 80.2189 58.4806 80.0243C55.5903 79.8561 53.053 80.7329 50.8989 82.6732C46.9605 86.2136 44.9862 90.5999 45.2605 95.8311C45.531 100.964 46.6189 105.917 49.2895 110.435C53.2074 117.091 57.9924 123.063 63.5215 128.472C63.8878 128.824 64.3488 129.084 64.7901 129.344C64.8903 129.4 65.0927 129.303 65.9028 129.193Z" fill="#FFEFF4"/>
<path fill-rule="evenodd" clip-rule="evenodd" d="M218.96 167.463C221.847 168.057 224.039 168.449 226.197 168.951C228.384 169.472 230.587 170.151 231.849 172.16C235.582 178.062 239.364 183.953 242.837 190.003C244.169 192.317 245.084 194.992 245.564 197.614C246.586 203.164 244.245 205.615 238.473 205.239C236.802 205.134 235.084 204.586 233.557 203.881C231.7 203.022 230.016 201.799 228.268 200.708C227.103 199.981 226.03 199.101 224.829 198.454C222.406 197.141 220.806 197.894 220.363 200.491C220.139 201.835 220.172 203.228 219.818 204.527C219.145 206.975 218.522 209.481 217.41 211.738C214.768 217.149 212.82 215.679 210.187 212.96C208.881 211.614 207.564 210.23 206.06 209.12C203.982 207.576 201.796 207.876 200.094 209.848C199.097 211.004 198.304 212.339 197.459 213.617C196.717 214.762 196.086 215.973 195.314 217.1C193.694 219.435 191.388 220.461 188.593 219.944C183.792 219.066 179.772 217.002 177.846 212.219C177.274 210.806 176.807 209.34 176.428 207.861C175.436 203.913 174.503 199.933 173.599 195.962C173.422 195.187 173.519 194.363 173.478 193.276C190.252 187.235 205.704 179.147 218.96 167.463Z" fill="#F3C888"/>
<path fill-rule="evenodd" clip-rule="evenodd" d="M42.9438 165.237C43.0647 163.749 43.3883 162.174 44.055 160.853C44.9684 159.049 46.0475 157.218 47.4764 155.819C51.7442 151.643 56.1645 147.61 60.6563 143.653C62.5556 141.98 64.7301 140.582 67.6294 139.682C68.904 142.809 69.908 145.52 71.0948 148.136C76.267 159.473 82.4549 170.168 91.3462 179.179C94.4461 182.326 94.5601 184.062 92.3045 187.747C89.1523 192.899 84.5554 196.405 78.7868 198.224C72.8531 200.09 68.7088 198.129 66.4761 192.467C65.4148 189.797 63.7375 188.753 60.9701 188.986C60.1194 189.057 59.2461 189.051 58.3901 188.984C54.5829 188.692 53.0769 186.721 54.1129 183.211C54.4966 181.931 55.1771 180.718 55.809 179.518C56.4409 178.317 57.2725 177.208 57.8449 175.99C58.6807 174.208 57.653 172.436 55.7147 172.282C54.5141 172.179 53.3042 172.353 52.1043 172.27C50.5703 172.169 48.9887 172.11 47.5212 171.69C44.199 170.728 42.6766 168.579 42.9438 165.237Z" fill="#F3C888"/>
<path fill-rule="evenodd" clip-rule="evenodd" d="M74.915 72.7703C74.2209 73.3602 73.3639 73.788 71.8988 74.7431C73.3684 68.665 75.0501 63.5382 77.2783 58.5985C82.7865 46.4148 91.1616 36.3977 101.048 27.4315C107.632 21.4576 115.06 17.054 123.452 14.0383C130.159 11.6298 137.074 10.2916 144.098 9.51296C150.663 8.78129 157.227 9.07816 163.618 10.7859C170.93 12.7358 178.242 14.6759 185.328 17.3762C194.801 20.9853 203.259 26.0173 210.084 33.5338C211.69 35.3029 213.172 37.413 215.195 38.5335C218.551 40.395 220.503 43.2785 222.497 46.2297C227.078 53.0394 230.861 60.2846 234.114 67.7871C239.945 81.255 242.776 95.3104 242.187 109.969C242.001 114.684 241.421 119.374 239.841 123.804C235.197 124.484 231.367 123.342 227.978 121.363C227.095 115.858 226.322 110.665 225.412 105.488C224.289 99.0918 221.533 93.5881 216.343 89.3826C210.172 84.3832 203.203 81.372 195.196 80.7833C194.005 80.6897 192.824 80.5957 191.723 80.5086C190.159 75.949 190.113 74.7342 191.316 69.9221C192.084 66.8373 191.581 65.9859 188.438 65.3427C186.243 64.8913 184.015 64.6092 181.839 64.1077C176.505 62.8843 172.547 59.8587 169.831 55.1743C167.408 50.9932 165.994 46.4872 165.14 41.7723C164.191 36.5863 163.466 31.3819 163.376 26.0943C163.352 24.9183 163.16 23.7191 162.795 22.6054C162.351 21.2474 160.409 20.7271 159.366 21.6762C157.981 22.9349 156.714 24.2188 155.99 26.0856C154.629 29.5685 153.11 33.0178 151.34 36.3085C143.93 50.0868 133.252 60.1707 117.779 64.798C113.772 65.9872 109.86 67.0838 105.664 65.8572C104.682 65.5678 103.622 65.5385 102.588 65.439C92.4281 64.4665 82.9491 65.9605 74.915 72.7703Z" fill="#F3C888"/>
<path fill-rule="evenodd" clip-rule="evenodd" d="M193.075 85.987C193.384 85.8567 193.699 85.6075 193.993 85.6162C204.196 85.8849 211.936 90.6175 217.929 98.4521C218.434 99.1055 218.739 99.9347 219.044 100.724C221.146 106.312 221.759 112.193 222.743 118.565C209.171 113.972 193.538 96.512 193.075 85.987Z" fill="#F3C888"/>
<path fill-rule="evenodd" clip-rule="evenodd" d="M73.4189 82.3109C77.707 73.4367 91.7455 67.6965 102.162 71.0625C101.218 72.3243 100.311 73.5156 99.425 74.7357C96.8957 78.1835 93.5196 80.2391 89.3215 81.297C84.2291 82.5766 79.1074 82.2847 73.4189 82.3109Z" fill="#F3C888"/>
<path fill-rule="evenodd" clip-rule="evenodd" d="M130.128 373.466C138.423 375.705 149.993 372.956 155.503 367.635C155.469 366.212 154.473 365.528 153.266 365.257C148.18 364.083 143.03 363.832 137.885 364.738C135.653 365.129 133.651 366.163 132.025 367.787C130.502 369.298 129.555 371.005 130.128 373.466Z" fill="#F9BD70"/>
<path fill-rule="evenodd" clip-rule="evenodd" d="M35.3244 338.77C36.4349 337.512 36.5001 336.372 35.9181 335.237C32.9568 329.504 29.5458 324.074 24.6731 319.689C23.1806 318.34 21.6022 317.055 19.05 317.27C18.8043 318.307 18.3206 319.275 18.404 320.192C18.564 321.847 18.8537 323.557 19.461 325.106C21.7144 330.797 28.7176 336.804 35.3244 338.77Z" fill="#F9BD70"/>
<path fill-rule="evenodd" clip-rule="evenodd" d="M168.459 218.768C168.333 218.556 168.197 218.345 168.062 218.134C168.105 218.24 168.1 218.378 168.182 218.444C168.293 218.538 168.452 218.581 168.592 218.645C168.582 218.645 168.459 218.768 168.459 218.768Z" fill="#FFEFF4"/>
<path fill-rule="evenodd" clip-rule="evenodd" d="M101.846 225.651C106.455 225.616 111.731 218.772 111.022 214.753C110.464 211.639 109.283 208.915 106.964 206.727C104.849 204.73 102.886 204.952 101.587 207.454C99.4002 211.68 97.304 215.952 95.2875 220.261C94.388 222.174 94.9393 223.538 96.9615 224.361C98.5046 224.966 100.211 225.228 101.846 225.651Z" fill="#FFE7A4"/>
<path fill-rule="evenodd" clip-rule="evenodd" d="M74.068 277.342C76.316 280.007 78.8982 280.592 81.9366 279.212C82.8626 278.791 83.7754 278.282 84.6276 277.726C90.4786 273.916 90.9379 267.579 85.7475 262.829C83.0961 260.397 79.5975 261.013 78.2901 264.346C76.6143 268.583 75.1374 272.891 74.068 277.342Z" fill="#FFE7A4"/>
<path fill-rule="evenodd" clip-rule="evenodd" d="M180.157 288.084C179.359 284.306 178.654 280.683 177.803 277.086C176.954 273.518 172.762 271.589 169.317 273.113C166.364 274.421 165.094 276.931 164.686 279.913C164.285 282.826 165.265 285.173 167.849 286.836C171.679 289.313 175.667 289.726 180.157 288.084Z" fill="#FFE7A4"/>
<path fill-rule="evenodd" clip-rule="evenodd" d="M116.032 306.173C123.264 307.542 130.182 307.865 137.201 307.482C136.39 301.797 132.437 297.604 127.431 297.001C126.308 296.866 125.041 297.101 123.947 297.479C120.083 298.811 118.321 300.756 116.032 306.173Z" fill="#FFE7A4"/>
<path fill-rule="evenodd" clip-rule="evenodd" d="M162.403 215.509C160.979 216.265 160 216.578 159.307 217.188C157.607 218.686 156.58 220.594 156.115 222.846C154.644 229.943 157.624 234.331 164.861 235.572C166.134 235.791 167.204 234.761 166.899 233.408C166.005 229.456 165.024 225.527 164.043 221.589C163.604 219.815 163.096 218.044 162.403 215.509Z" fill="#FFE7A4"/>
<path fill-rule="evenodd" clip-rule="evenodd" d="M126.204 197.617C127.642 201.182 129.53 203.405 132.952 203.633C134.191 203.714 135.621 203.127 136.755 202.491C138.042 201.77 139.159 200.679 139.299 198.657C134.966 198.473 130.854 197.896 126.204 197.617Z" fill="#FFE7A4"/>
<path fill-rule="evenodd" clip-rule="evenodd" d="M135.983 253.946C135.484 252.165 135.218 250.286 134.459 248.633C132.25 243.841 126.747 242.544 122.409 245.625C120.23 247.171 118.726 249.176 118.076 251.742C116.3 258.801 122.844 265.378 130.181 263.787C131.407 263.523 132.637 262.567 133.504 261.625C135.464 259.494 135.874 256.808 135.983 253.946Z" fill="#FFE7A4"/>
<path fill-rule="evenodd" clip-rule="evenodd" d="M151.503 148.402C148.493 146.864 145.698 146.366 142.746 146.111C137.953 145.698 133.205 144.888 128.424 144.287C127.439 144.156 126.44 144.203 125.094 144.165C125.105 145.223 124.998 146.038 125.154 146.803C126.022 151.122 126.851 155.442 127.884 159.725C128.834 163.625 131.473 165.712 135.568 166.101C143.956 166.913 147.175 164.062 149.792 157.971C151.074 155.025 151.879 151.889 151.503 148.402Z" fill="#F2F3F5"/>
<path fill-rule="evenodd" clip-rule="evenodd" d="M69.6614 121.656C69.3619 113.656 74.7054 106.246 83.021 106.17C90.9148 106.09 97.3912 113.224 99.1266 120.537C100.408 125.948 98.9849 131.688 95.4231 135.333C91.1254 141.329 82.5822 141.354 77.1182 136.635C72.474 133.378 69.88 127.235 69.6614 121.656Z" fill="#FEDAC6"/>
<path fill-rule="evenodd" clip-rule="evenodd" d="M185.136 138.324C189.327 129.751 198.892 128.194 206.872 132.245C214.332 136.029 217.875 144.47 216.617 152.538C215.492 159.701 209.047 163.612 202.54 164.589C197.712 165.315 191.971 163.157 188.763 159.48C188.199 158.839 187.703 158.156 187.274 157.45C183.286 152.072 182.247 144.229 185.136 138.324Z" fill="#FEDAC6"/>
<path fill-rule="evenodd" clip-rule="evenodd" d="M168.46 218.771C169.209 219.643 170.101 220.42 170.677 221.378C174.622 227.974 179.035 234.246 183.927 240.184C188.696 245.988 193.484 251.781 198.396 257.48C200.939 260.43 203.759 263.173 206.71 266.266C205.598 268.266 204.438 270.307 203.319 272.387C201.705 275.385 200.011 278.346 198.587 281.436C197.071 284.707 197.314 288.06 198.896 291.274C200.488 294.498 201.593 294.941 205.508 294.18C205.82 294.119 206.166 294.185 206.627 294.197C207.194 294.928 207.746 295.787 208.45 296.512C210.684 298.792 213.218 299.141 215.9 297.409C217.308 296.505 218.518 295.283 219.945 294.092C221.132 294.888 222.167 295.808 223.384 296.356C224.762 296.986 226.275 297.592 227.761 297.694C231.389 297.923 233.572 295.705 233.506 292.118C233.481 290.932 233.358 289.74 233.129 288.581C232.92 287.452 232.515 286.35 232.131 284.98C233.794 284.353 234.968 285.298 236.184 285.559C238.251 286.005 240.251 286.246 242.28 285.409C243.893 284.735 244.693 283.567 244.727 281.865C244.778 279.559 243.898 277.545 242.68 275.662C241.774 274.252 240.743 272.926 239.666 271.404C240.703 270.544 241.709 269.883 242.49 269.013C243.856 267.498 245.32 265.989 246.294 264.232C248.721 259.878 246.536 255.51 241.551 254.659C239.536 254.31 237.418 254.33 235.364 254.487C226.816 255.164 218.702 257.23 211.733 262.338C209.251 262.096 207.505 260.767 205.991 259.113C203.905 256.848 201.762 254.624 199.828 252.244C193.361 244.299 186.759 236.448 180.664 228.231C177.018 223.325 174.029 217.919 171.082 212.551C168.239 207.367 165.82 201.959 163.048 196.318C164.728 195.849 166.33 195.403 167.834 194.98C169.248 196.569 169.566 198.248 169.96 199.875C170.751 203.178 171.493 206.493 172.303 209.795C173.089 212.96 174.242 216.002 176.463 218.46C179.962 222.324 184.573 224.168 189.719 224.568C192.778 224.799 195.488 223.559 197.572 221.315C198.722 220.065 199.639 218.607 200.596 217.196C201.452 215.937 202.226 214.623 203.226 213.032C204.224 213.736 205.056 214.229 205.766 214.855C206.923 215.87 207.929 217.058 209.122 218.022C212.522 220.802 216.23 220.524 219.158 217.259C221.126 215.058 222.372 212.44 223.249 209.658C223.757 208.046 224.147 206.4 224.7 204.391C225.546 204.715 226.308 204.914 226.989 205.274C228.801 206.245 230.531 207.386 232.37 208.296C236.107 210.133 240.005 210.234 243.941 208.968C248.234 207.58 250.45 204.648 250.46 200.217C250.474 195.875 249.116 191.822 246.985 188.095C244.791 184.251 242.309 180.567 239.961 176.808C238.532 174.528 236.9 172.344 235.952 169.571C238.404 168.49 240.811 168.34 243.107 167.819C248.252 166.656 252.891 164.513 256.8 160.984C262.503 155.834 265.458 149.611 264.118 141.859C263.681 139.353 263.243 136.818 262.417 134.416C259.642 126.322 254.968 123.037 245.983 122.801C245.919 121.884 245.647 120.895 245.818 119.979C249.255 100.921 245.663 82.8195 238.228 65.2584C235.107 57.8795 231.244 50.8746 226.891 44.1256C223.725 39.2109 219.875 34.8758 215.436 31.0672C208.392 25.0326 201.06 19.4143 192.581 15.4018C190.884 14.5954 189.14 13.8797 187.388 13.194C186.113 12.6882 184.721 12.434 183.492 11.8374C177.567 8.95507 171.108 7.79386 164.808 6.16183C155.655 3.77679 146.382 3.97742 137.095 5.61264C130.79 6.73012 124.649 8.30624 118.706 10.6859C111.931 13.4034 105.778 17.0074 100.237 21.7652C88.7749 31.6017 79.1582 42.783 72.8958 56.5676C70.2767 62.3329 68.5905 68.3895 66.8449 74.4286C66.576 75.3684 66.2181 76.2917 65.7938 77.534C64.7558 77.0588 64.0353 76.6805 63.2885 76.3822C57.4012 73.983 52.1169 75.1115 47.5145 79.2604C42.5235 83.7701 40.1629 89.3674 40.4738 96.1005C40.7795 102.695 42.5387 108.81 46.0739 114.413C50.1732 120.934 54.9683 126.915 60.5547 132.283C61.6435 133.33 62.7323 134.376 64.0955 135.68C63.2278 136.346 62.6201 136.883 61.9398 137.314C55.1012 141.735 49.2144 147.208 43.7871 153.168C41.092 156.118 39.2966 159.518 38.4442 163.476C37.3922 168.391 39.8528 174.114 46.3395 176.016C47.1625 176.252 48.0297 176.358 48.8701 176.534C49.6811 176.711 50.4929 176.908 51.5521 177.165C50.9082 178.831 50.292 180.189 49.8445 181.6C47.7814 188.067 51.0078 192.761 57.856 193.315C59.0563 193.408 60.2554 193.472 61.632 193.558C62.2362 194.762 62.802 195.987 63.4732 197.148C65.2786 200.304 68.0664 202.187 71.6499 202.794C75.4701 203.431 79.1862 203.123 82.7834 201.475C89.2641 198.501 94.3594 194.156 97.4127 187.672C97.6942 187.068 98.0458 186.501 98.4306 185.775C99.1394 186.104 99.7951 186.326 100.348 186.691C101.465 187.44 102.536 188.27 103.868 189.249C103.194 190.372 102.703 191.429 101.991 192.326C93.6385 202.935 85.3567 213.612 76.8218 224.08C70.7346 231.538 63.8225 238.187 55.0945 242.709C52.8139 243.892 50.4396 244.931 48.0526 245.891C45.9652 246.731 44.9863 246.264 43.9197 244.237C43.7613 243.936 43.6414 243.615 43.5218 243.303C42.0073 239.008 38.8446 236.279 34.8196 234.363C31.0839 232.576 27.2867 230.978 23.0503 230.752C22.5293 230.722 22.0242 230.592 21.5137 230.582C15.381 230.536 11.8733 234.841 13.3381 240.69C13.6615 241.994 14.2288 243.258 14.862 244.45C15.4004 245.469 16.1988 246.358 17.2132 247.774C15.98 248.898 14.6166 249.949 13.496 251.197C12.3663 252.466 11.2795 253.832 10.5114 255.325C9.25088 257.815 9.90761 259.897 12.2348 261.53C13.0508 262.103 14.0164 262.482 15.2163 263.089C14.7127 264.048 14.2042 264.878 13.8249 265.752C11.6562 270.71 14.0475 274.318 19.4393 274.224C20.4686 274.205 21.4829 274.048 22.4211 273.954C22.775 274.237 23.1242 274.392 23.2618 274.664C25.3265 278.72 27.1378 279.937 31.3245 279.097C33.8657 278.586 35.932 278.756 38.1867 280.026C39.4592 280.74 41.1628 280.913 42.6943 280.944C46.4839 281.029 49.0056 279.213 49.8804 275.59C50.9162 271.289 51.5485 266.953 50.5277 262.482C49.6601 258.697 49.2013 254.828 48.5411 250.818C50.2661 249.991 51.7774 249.222 53.3215 248.541C60.9731 245.138 67.5598 240.281 73.4417 234.413C78.9172 228.956 83.5831 222.836 88.3804 216.821C90.4883 214.17 92.5857 211.5 94.74 208.778C95.7248 209.928 94.889 210.662 94.5499 211.298C87.0883 225.543 82.1058 240.762 76.4563 255.721C73.1006 264.609 70.1724 273.65 67.2831 282.679C66.1145 286.313 65.8406 290.002 66.5401 293.754C67.3534 298.183 69.9244 301.093 74.2995 302.402C76.095 302.938 77.9439 303.323 80.2017 303.891C79.3424 305.308 78.7493 306.497 77.945 307.546C74.7181 311.752 71.4612 315.939 68.1432 320.069C62.9413 326.545 56.8171 331.968 49.1406 335.49C46.8164 336.557 44.5256 337.731 41.74 337.737C39.3867 330.428 35.0299 324.362 30.2048 318.629C28.6957 316.837 26.5679 315.552 24.669 314.09C24.1339 313.685 23.4654 313.384 22.8112 313.201C17.9852 311.899 14.3925 312.885 13.8757 318.997C13.6094 322.102 14.2903 325.093 15.7863 327.845C19.4104 334.513 24.8103 339.353 31.7459 342.504C33.971 343.508 36.2237 343.414 38.7519 343.081C50.309 341.548 59.3924 335.777 67.2237 327.739C69.9631 324.926 72.4376 321.846 74.9233 318.805C77.2959 315.888 79.5574 312.885 81.799 309.873C83.0035 308.246 84.0676 306.534 85.2379 304.779C95.1495 306.72 105.1 308.64 115.042 310.62C124.876 312.574 134.923 311.582 145.036 312.349C146.95 328.367 147.626 344.324 152.89 359.425C150.728 360.644 149.014 359.927 147.343 359.841C143.716 359.642 140.122 359.54 136.546 360.446C133.271 361.271 130.464 362.811 128.182 365.27C126.099 367.514 125.207 370.159 125.478 373.224C125.699 375.718 126.987 377.361 129.339 378.093C130.64 378.499 132.025 378.813 133.39 378.86C142.105 379.234 150.09 376.887 157.444 372.328C159.85 370.843 161.699 368.864 162.298 365.994C162.631 364.419 162.319 363.164 160.751 362.67C158.616 361.988 157.827 360.554 157.267 358.696C154.979 351.029 153.051 343.289 152.126 335.343C151.243 327.751 150.517 320.153 149.694 312.322C150.932 312.117 152.09 311.846 153.253 311.753C159.786 311.22 166.332 310.766 172.854 310.204C176.658 309.883 180.375 309.09 183.793 307.35C187.479 305.47 188.305 303.946 187.409 299.935C184.247 285.684 181.084 271.414 177.698 257.211C175.021 245.978 172.004 234.817 169.211 223.619C168.807 222.002 168.782 220.292 168.582 218.618C168.442 218.554 168.283 218.501 168.172 218.416C168.091 218.35 168.096 218.211 168.053 218.104C168.199 218.346 168.334 218.558 168.46 218.771ZM191.712 80.4888C190.148 75.9292 190.103 74.7144 191.306 69.9023C192.073 66.8175 191.571 65.9662 188.427 65.323C186.232 64.8716 184.005 64.5895 181.828 64.0879C176.495 62.8645 172.536 59.839 169.82 55.1546C167.398 50.9734 165.983 46.4675 165.13 41.7526C164.18 36.5666 163.456 31.3622 163.366 26.0746C163.341 24.8986 163.149 23.6993 162.784 22.5857C162.341 21.2277 160.399 20.7074 159.355 21.6565C157.97 22.9152 156.704 24.199 155.979 26.0658C154.618 29.5487 153.099 32.9981 151.329 36.2887C143.919 50.0671 133.241 60.151 117.768 64.7782C113.761 65.9674 109.849 67.0641 105.654 65.8374C104.672 65.548 103.611 65.5188 102.577 65.4192C92.4371 64.446 82.9585 65.9499 74.9142 72.7502C74.2201 73.3401 73.3631 73.7679 71.898 74.723C73.3676 68.6449 75.0493 63.5181 77.2775 58.5784C82.7856 46.3946 91.1608 36.3776 101.047 27.4114C107.631 21.4375 115.059 17.0339 123.451 14.0182C130.159 11.6097 137.073 10.2715 144.097 9.49287C150.662 8.76119 157.226 9.05807 163.617 10.7658C170.929 12.7157 178.241 14.6558 185.327 17.356C194.801 20.9652 203.258 25.9972 210.083 33.5136C211.689 35.2828 213.171 37.3928 215.194 38.5133C218.55 40.3749 220.502 43.2584 222.496 46.2096C227.077 53.0193 230.86 60.2645 234.113 67.767C239.944 81.2349 242.775 95.2904 242.186 109.949C242 114.664 241.42 119.354 239.84 123.784C235.196 124.463 231.367 123.322 227.977 121.343C227.094 115.838 226.321 110.645 225.411 105.468C224.289 99.0717 221.532 93.568 216.342 89.3624C210.171 84.3631 203.202 81.3519 195.195 80.7632C194.005 80.6794 192.814 80.5759 191.712 80.4888ZM72.4262 282.495C73.4126 282.903 74.0206 283.157 74.6288 283.421C78.2301 285.026 81.7425 284.518 85.0385 282.683C86.8262 281.696 88.4343 280.37 90.024 279.074C93.5838 276.161 94.6271 272.324 93.5157 268.054C92.0824 262.52 89.381 257.964 83.0008 256.809C82.3984 256.704 81.855 256.338 81.1571 256.038C83.0094 251.014 84.7131 246.212 86.5656 241.455C88.4007 236.758 89.6574 231.805 92.4531 227.348C93.9389 227.994 95.1406 228.651 96.4209 229.048C99.0707 229.868 101.727 230.322 104.542 229.534C112.114 227.419 117.163 218.942 114.982 211.527C113.857 207.693 111.724 204.431 108.34 202.076C107.524 201.503 106.661 200.992 105.485 200.235C107.128 197.73 107.539 194.827 109.359 192.345C113.187 193.714 116.885 195.019 120.723 196.388C121.051 197.295 121.429 198.23 121.74 199.178C122.68 202.04 124.567 204.214 126.901 206.025C130.437 208.77 134.545 208.981 138.494 206.776C140.512 205.651 141.94 203.976 143.216 202.147C144.082 200.908 144.897 199.632 145.751 198.333C149.815 198.151 153.697 197.283 157.829 197.622C159.824 201.898 160.879 206.24 161.159 210.581C159.218 211.919 157.37 212.869 155.921 214.239C152.158 217.753 151.151 222.311 151.199 227.263C151.245 231.376 153.085 234.402 156.36 236.712C158.929 238.524 161.85 239.521 164.888 240.218C166.213 240.514 167.53 240.821 168.727 241.102C171.621 249.765 175 264.018 175.095 268.138C174.272 268.169 173.433 268.28 172.616 268.221C167.933 267.844 164.714 270.161 162.238 273.725C158.31 279.372 159.848 286.919 165.571 290.709C169.172 293.095 173.161 293.786 177.401 293.586C178.724 293.527 180.142 292.91 181.495 294.194C181.956 296.817 183.292 299.467 182.917 302.309C181.458 303.947 179.593 304.442 177.775 304.866C175.596 305.374 173.378 305.863 171.157 306.006C162.555 306.557 153.938 306.99 145.322 307.413C144.352 307.459 143.36 307.141 142.393 307.009C141.97 305.65 141.711 304.493 141.258 303.402C139.912 300.219 137.956 297.484 135.054 295.428C129.653 291.606 124.131 291.369 118.76 295.161C116.839 296.519 115.231 298.369 113.699 300.167C112.393 301.69 111.39 303.469 110.097 305.357C104.234 304.124 98.3599 302.861 92.4778 301.649C87.426 300.602 82.3386 299.657 77.2951 298.571C72.5285 297.544 70.9369 295.645 70.6499 290.86C70.4782 288.107 70.85 285.462 72.4262 282.495ZM154.783 111.261C154.904 112.127 155.1 112.644 155.019 113.111C154.22 118.225 154.917 123.232 155.705 128.296C158.546 146.544 178.131 162.659 202.598 153.807C213.534 148.51 221.786 140.703 226.296 129.367C226.645 128.484 227.164 127.663 227.548 126.917C231.193 127.848 234.501 128.693 237.938 129.572C237.809 130.338 237.796 131.021 237.573 131.633C232.678 145 224.965 156.446 213.81 165.589C204.464 173.259 194.188 179.391 183.131 184.327C167.279 191.411 150.747 194.743 133.334 193.401C117.908 192.202 104.849 186.126 94.1169 175.098C86.8729 167.637 81.7666 158.849 77.08 149.739C73.2722 142.356 71.3111 134.518 70.6513 126.325C70.584 125.576 70.2042 124.601 71.4808 124.375C73.0788 126.184 74.4959 128.138 76.2617 129.714C86.5321 138.88 104.205 140.599 114.938 132.263C116.425 131.109 117.974 130.023 119.523 128.956C122.42 126.958 124.558 124.306 126.08 121.222C127.44 118.481 128.599 115.649 129.778 112.825C130.552 110.957 131.216 109.043 131.975 107.036C140.451 104.967 147.501 108.815 154.783 111.261ZM70.0897 87.2125C74.836 87.1723 79.1384 87.3269 83.4252 87.0666C91.6568 86.5788 98.919 84.0407 103.853 76.952C104.821 75.5607 106.101 74.395 107.231 73.1163C108.378 71.8072 109.828 71.4955 111.437 72.0085C115.388 73.274 119.14 74.9525 122.274 77.7125C124.769 79.8932 126.525 82.5171 127.401 85.7477C128.755 90.7306 129.089 95.7321 128.201 100.829C127.354 105.707 125.742 110.346 123.862 114.897C122.09 119.177 119.835 123.148 115.551 125.565C114.965 125.893 114.464 126.407 113.951 126.851C109.169 130.928 103.52 132.535 97.2875 132.7C93.7109 132.805 90.3916 131.921 87.406 130.253C77.3071 124.621 69.7033 116.985 67.3311 105.236C66.055 98.9254 65.6996 92.8369 70.0897 87.2125ZM187.175 86.3857C187.683 87.6424 188.123 88.9016 188.688 90.1066C189.978 92.8766 191.154 95.7202 192.675 98.3628C197.87 107.414 205.093 114.579 214.113 119.966C216.742 121.538 219.408 123.04 221.935 124.508C221.702 128.502 221.169 130.253 218.818 133.743C215.444 138.746 211.227 142.969 206.206 146.402C202.59 148.872 198.615 150.377 194.295 151.063C175.747 153.997 162.966 141.176 160.692 128.642C160.148 125.646 159.749 122.596 159.548 119.567C158.49 104.406 171.241 90.4864 181.967 87.185C183.605 86.6685 185.192 86.0747 187.175 86.3857ZM185.482 69.9733C185.632 74.0026 185.763 77.4887 185.898 81.0835C171.21 84.1483 162.453 93.6654 156.445 106.392C152.486 105.176 148.776 103.823 144.955 102.908C141.164 102.003 137.263 101.556 133.245 100.877C133.753 96.3576 133.609 91.982 132.827 87.6105C131.624 80.8912 128.278 75.6272 122.477 71.86C121.542 71.2524 120.691 70.5328 119.339 69.5354C121.6 68.6195 123.32 67.9218 125.04 67.2143C133.772 63.5825 141.297 58.3742 147.169 50.9436C150.785 46.3769 154.09 41.6341 156.701 36.4327C157.093 35.6564 157.101 34.3012 158.921 34.4404C159.195 35.9729 159.52 37.5925 159.777 39.2245C160.785 45.4467 162.228 51.5042 165.381 57.1018C168.848 63.2512 173.977 67.1328 180.849 68.862C182.354 69.2306 183.848 69.5798 185.482 69.9733ZM218.962 167.462C221.848 168.055 224.041 168.447 226.198 168.95C228.385 169.471 230.589 170.149 231.851 172.159C235.584 178.061 239.365 183.951 242.838 190.001C244.171 192.315 245.085 194.99 245.566 197.613C246.588 203.162 244.247 205.614 238.474 205.238C236.803 205.132 235.085 204.584 233.558 203.88C231.701 203.02 230.017 201.798 228.27 200.707C227.105 199.979 226.032 199.1 224.83 198.453C222.407 197.139 220.807 197.892 220.365 200.49C220.141 201.833 220.173 203.227 219.819 204.526C219.146 206.974 218.524 209.48 217.411 211.737C214.769 217.147 212.821 215.678 210.188 212.958C208.882 211.613 207.565 210.228 206.062 209.118C203.983 207.574 201.797 207.874 200.095 209.847C199.099 211.002 198.305 212.337 197.46 213.615C196.719 214.761 196.087 215.971 195.315 217.098C193.695 219.434 191.389 220.46 188.594 219.942C183.794 219.064 179.773 217 177.848 212.217C177.275 210.805 176.808 209.339 176.429 207.86C175.438 203.912 174.504 199.931 173.6 195.96C173.424 195.185 173.52 194.361 173.48 193.275C190.254 187.234 205.705 179.146 218.962 167.462ZM67.6394 139.681C68.914 142.807 69.918 145.519 71.1047 148.134C76.2769 159.471 82.4649 170.166 91.3562 179.177C94.4561 182.324 94.5701 184.061 92.3145 187.745C89.1623 192.898 84.5654 196.404 78.7968 198.223C72.8632 200.088 68.7188 198.128 66.4861 192.466C65.4248 189.796 63.7475 188.751 60.9801 188.984C60.1293 189.056 59.2561 189.049 58.4002 188.982C54.5929 188.69 53.0869 186.72 54.1229 183.209C54.5066 181.929 55.1871 180.717 55.819 179.516C56.4509 178.315 57.2825 177.206 57.8549 175.988C58.6907 174.206 57.663 172.435 55.7247 172.28C54.5241 172.177 53.3142 172.351 52.1144 172.268C50.5803 172.167 48.9987 172.108 47.5312 171.689C44.2093 170.736 42.6869 168.588 42.9542 165.245C43.0751 163.757 43.3987 162.182 44.0653 160.861C44.9787 159.057 46.0579 157.226 47.4868 155.827C51.7546 151.652 56.1749 147.618 60.6667 143.662C62.5652 141.968 64.7401 140.581 67.6394 139.681ZM14.0471 258.06C16.6201 254.205 18.4898 251.217 22.6129 250.775C23.7266 250.654 24.6624 250.233 25.0041 249.142C25.4241 247.781 24.5578 246.914 23.5396 246.181C22.4208 245.382 21.2561 244.665 20.1747 243.815C18.7604 242.721 17.9988 241.247 17.7462 239.476C17.3247 236.604 18.3426 235.231 21.3254 235.247C27.2704 235.261 32.3884 237.55 36.8906 241.208C37.6591 241.822 38.5095 242.789 38.6208 243.665C39.0077 246.924 41.1226 249.178 43.0156 251.53C43.8076 252.509 44.3234 253.449 44.5256 254.658C45.0988 258.177 45.7793 261.682 46.2941 265.213C46.7683 268.448 46.2797 271.641 45.3665 274.761C45.192 275.342 44.7066 276.003 44.1684 276.3C41.8618 277.573 38.7613 276.246 38.1739 273.657C37.8577 272.285 37.774 270.834 36.0954 270.541C34.0612 270.183 33.4592 271.659 32.9977 273.219C32.5098 274.86 31.174 275.078 29.7198 275.014C28.5312 274.97 27.7208 274.021 28.0444 272.971C28.4571 271.679 29.167 270.466 29.4419 269.16C29.5919 268.452 29.3256 267.364 28.8177 266.899C28.32 266.443 27.2056 266.287 26.507 266.491C25.3716 266.821 24.3798 267.58 23.3008 268.105C22.0774 268.705 20.8345 269.306 19.5472 269.77C19.1696 269.903 18.3379 269.697 18.2096 269.415C17.9643 268.89 17.8248 268.045 18.093 267.609C18.6105 266.759 19.3875 266.028 20.1577 265.375C20.9373 264.713 21.8806 264.233 22.6911 263.609C24.1688 262.465 24.6745 261.299 24.21 260.159C23.6794 258.825 22.4765 258.662 21.2374 258.58C19.2106 258.419 17.1747 258.278 14.0471 258.06ZM224.001 163.445C224.554 162.514 224.742 162.022 225.072 161.664C232.86 153.251 238.291 143.474 242.278 132.85C242.742 131.607 243.523 130.45 244.356 129.39C244.843 128.768 245.666 128.223 246.434 128.046C249.273 127.365 252.032 127.687 254.058 129.934C255.409 131.426 256.67 133.149 257.435 134.98C258.341 137.151 258.637 139.553 259.242 141.844C260.73 147.534 258.649 152.201 254.809 156.272C252.063 159.184 248.646 161.182 244.807 162.404C240.678 163.727 236.417 164.411 232.092 164.446C229.542 164.472 226.938 164.61 224.001 163.445ZM203.388 289.424C203.055 288.922 202.537 288.427 202.377 287.84C201.922 286.166 201.967 284.483 202.81 282.889C204.229 280.175 205.638 277.462 207.067 274.748C209.072 270.934 211.739 267.758 215.424 265.315C222.9 260.365 231.177 258.709 239.981 258.852C240.148 258.856 240.316 258.899 240.494 258.932C242.322 259.288 243.133 260.781 242.22 262.318C240.098 265.919 237.085 268.228 232.675 268.335C231.646 268.363 230.594 268.304 229.579 268.451C228.506 268.61 227.636 269.207 227.504 270.388C227.372 271.58 228.057 272.346 229.147 272.631C230.128 272.891 231.186 272.861 232.185 273.07C233.173 273.271 234.287 273.397 235.072 273.941C237.48 275.63 239.25 277.838 240.092 281.209C238.597 281.097 237.385 281.231 236.342 280.875C234.564 280.27 232.909 279.303 231.165 278.578C229.75 277.988 228.314 277.37 226.82 277.02C225.256 276.654 223.724 278.423 224.26 279.925C224.72 281.194 225.508 282.331 226.045 283.577C227.045 285.903 228.035 288.249 228.899 290.63C229.173 291.401 229.162 292.429 228.156 292.794C227.575 293.003 226.646 293.068 226.222 292.748C225.02 291.844 223.902 290.798 222.947 289.637C222.319 288.87 222.168 287.718 221.551 286.94C221.077 286.345 220.19 285.716 219.495 285.732C218.818 285.748 217.912 286.425 217.553 287.051C216.808 288.375 216.463 289.911 215.738 291.244C215.004 292.596 214.02 293.83 211.896 293.445C211.569 292.815 210.983 292.115 210.837 291.339C210.555 289.846 210.498 288.316 210.411 286.786C210.309 285.119 210.661 283.236 208.43 282.608C207.111 282.232 206.324 283.211 205.637 286.095C205.335 287.442 205.17 288.803 203.388 289.424ZM65.903 129.194C65.0835 129.313 64.881 129.41 64.7805 129.345C64.3391 129.084 63.8785 128.835 63.5119 128.473C57.973 123.064 53.1974 117.082 49.2799 110.435C46.6093 105.917 45.5214 100.964 45.2508 95.8317C44.9765 90.6005 46.9508 86.2143 50.8893 82.6739C53.0434 80.7335 55.5807 79.8568 58.471 80.0249C61.9803 80.2192 63.7844 82.0303 63.8154 85.4806C63.8289 86.6273 63.5595 87.8144 63.2283 88.9246C61.0032 96.3069 60.924 103.628 63.5907 110.925C63.9953 112.038 64.4112 113.189 64.5336 114.361C65.05 119.247 65.4492 124.147 65.903 129.194ZM222.743 118.573C209.171 113.971 193.538 96.5007 193.075 85.9856C193.384 85.8553 193.699 85.6062 193.993 85.6148C204.195 85.8836 211.936 90.6162 217.928 98.4507C218.434 99.1042 218.739 99.9333 219.043 100.723C221.146 106.32 221.749 112.192 222.743 118.573ZM101.846 225.65C100.211 225.227 98.5049 224.974 96.9513 224.351C94.9295 223.537 94.3778 222.163 95.2773 220.25C97.3039 215.951 99.3901 211.669 101.576 207.443C102.876 204.942 104.839 204.719 106.954 206.717C109.273 208.904 110.454 211.638 111.012 214.743C111.741 218.77 106.455 225.615 101.846 225.65ZM73.418 82.3105C77.7061 73.4363 91.7446 67.6961 102.161 71.0621C101.217 72.324 100.31 73.5152 99.4241 74.7353C96.8948 78.1831 93.5187 80.2386 89.3206 81.2966C84.2283 82.5761 79.1066 82.2843 73.418 82.3105ZM74.0677 277.34C75.137 272.889 76.6139 268.581 78.28 264.345C79.5874 261.012 83.086 260.396 85.7373 262.828C90.9278 267.578 90.4685 273.914 84.6175 277.725C83.7653 278.281 82.8622 278.789 81.9264 279.21C78.8979 280.59 76.3157 280.005 74.0677 277.34ZM180.158 288.083C175.677 289.715 171.679 289.302 167.859 286.845C165.276 285.182 164.296 282.835 164.697 279.922C165.105 276.94 166.365 274.43 169.327 273.122C172.772 271.588 176.964 273.517 177.814 277.095C178.655 280.683 179.35 284.316 180.158 288.083ZM130.127 373.465C129.555 371.004 130.501 369.297 132.024 367.786C133.65 366.162 135.652 365.118 137.884 364.737C143.029 363.831 148.189 364.082 153.265 365.256C154.472 365.537 155.469 366.211 155.502 367.634C149.992 372.954 138.422 375.704 130.127 373.465ZM35.3239 338.77C28.7171 336.803 21.7139 330.797 19.4605 325.106C18.8433 323.557 18.5635 321.846 18.4034 320.191C18.3201 319.274 18.7944 318.317 19.0494 317.269C21.6017 317.054 23.1801 318.34 24.6725 319.688C29.5453 324.074 32.9563 329.503 35.9176 335.236C36.4996 336.372 36.4343 337.511 35.3239 338.77ZM116.033 306.172C118.322 300.765 120.084 298.81 123.947 297.468C125.042 297.09 126.298 296.855 127.431 296.99C132.437 297.593 136.391 301.786 137.202 307.472C130.173 307.865 123.265 307.531 116.033 306.172ZM162.403 215.508C163.097 218.043 163.604 219.814 164.044 221.598C165.025 225.537 166.006 229.465 166.899 233.417C167.205 234.771 166.135 235.79 164.861 235.581C157.625 234.34 154.645 229.942 156.116 222.855C156.581 220.603 157.608 218.705 159.308 217.197C160.001 216.588 160.98 216.264 162.403 215.508ZM126.203 197.615C130.844 197.896 134.956 198.473 139.299 198.655C139.159 200.688 138.032 201.769 136.754 202.49C135.621 203.126 134.201 203.713 132.952 203.632C129.539 203.404 127.651 201.181 126.203 197.615Z" fill="#664E2B"/>
<path fill-rule="evenodd" clip-rule="evenodd" d="M113.149 255.853C113.319 258.289 114.282 260.952 116.394 263.138C120.211 267.088 124.904 268.761 130.398 268.277C134.006 267.964 136.238 265.734 138.155 262.952C141.159 258.576 141.249 248.129 136.024 242.976C132.163 239.165 126.643 238.176 121.814 240.741C116.139 243.744 112.881 249.207 113.149 255.853ZM135.983 253.945C135.884 256.807 135.474 259.482 133.504 261.614C132.627 262.556 131.397 263.513 130.181 263.776C122.854 265.377 116.3 258.79 118.076 251.731C118.726 249.165 120.23 247.16 122.409 245.614C126.737 242.544 132.24 243.84 134.459 248.622C135.218 250.285 135.485 252.173 135.983 253.945Z" fill="#664E2B"/>
<path fill-rule="evenodd" clip-rule="evenodd" d="M126.373 139.271C125.159 139.317 124.982 139.323 124.816 139.33C119.574 139.487 118.872 140.394 119.914 145.428C120.846 149.893 121.662 154.392 122.624 158.865C124.869 169.303 131.72 171.508 139.861 170.954C145.526 170.573 149.58 168.027 152.476 163.359C155.251 158.893 156.264 153.96 156.582 148.835C156.693 147.09 156.105 145.52 155.225 144.03C154.367 142.589 153.219 142.058 151.457 141.917C145.298 141.427 139.159 140.679 133.022 140.01C130.461 139.73 127.91 139.441 126.373 139.271ZM151.504 148.403C151.87 151.89 151.075 155.025 149.793 157.981C147.166 164.063 143.957 166.914 135.569 166.112C131.474 165.722 128.835 163.636 127.885 159.735C126.851 155.452 126.013 151.132 125.155 146.813C124.999 146.048 125.115 145.232 125.095 144.175C126.441 144.213 127.439 144.166 128.425 144.297C133.205 144.898 137.954 145.708 142.747 146.121C145.699 146.366 148.494 146.864 151.504 148.403Z" fill="#664E2B"/>
<path fill-rule="evenodd" clip-rule="evenodd" d="M95.5625 100.258C95.8229 104.332 98.3786 106.827 101.865 106.923C105.597 107.04 108.549 104.674 109.032 101.076C109.162 100.092 109.094 99.0461 108.939 98.063C108.42 94.6705 107.041 92.9621 104.554 92.5513C101.425 92.046 98.8038 92.7677 96.9855 95.5558C95.9283 97.1879 95.4538 98.9266 95.5625 100.258Z" fill="#664E2B"/>
<path fill-rule="evenodd" clip-rule="evenodd" d="M175.872 118.042C176.043 122.605 179.276 125.638 183.813 125.507C188.34 125.376 191.783 122.22 191.571 118.391C191.333 114.127 187.22 110.129 183.192 110.221C179.536 110.319 175.735 114.368 175.872 118.042Z" fill="#664E2B"/>
</svg>
